<svg viewBox="0 0 600 400" xmlns="http://www.w3.org/2000/svg">
<g transform="translate(54, 364)">
<g>
<rect fill="#830445" height="10" width="10" x="-0.38231784632978627" y="-158.46431125370762"/>
<rect fill="#830445" height="10" width="10" x="189.48324019328214" y="-76.76964460855746"/>
<rect fill="#830445" height="10" width="10" x="39.87579558458097" y="-155.76961004648166"/>
<rect fill="#830445" height="10" width="10" x="167.2624802676092" y="-116.846260594057"/>
<rect fill="#830445" height="10" width="10" x="19.54773003871579" y="-5.319276847218209"/>
<rect fill="#830445" height="10" width="10" x="24.348253682200465" y="-136.26399477470414"/>
<rect fill="#830445" height="10" width="10" x="324.2455674092081" y="-49.00206403858494"/>
<rect fill="#830445" height="10" width="10" x="208.07595950515406" y="-165.06634350132396"/>
<rect fill="#830445" height="10" width="10" x="193.0032870691876" y="-130.17535453947607"/>
<rect fill="#830445" height="10" width="10" x="35.20335887867596" y="-42.936859698299"/>
<rect fill="#830445" height="10" width="10" x="98.38503095971532" y="-132.65451793714394"/>
<rect fill="#830445" height="10" width="10" x="98.85319129782602" y="-157.03080714525734"/>
<rect fill="#830445" height="10" width="10" x="195.8967270428022" y="-88.76216885264752"/>
<rect fill="#830445" height="10" width="10" x="321.7689905813666" y="-128.84225438012257"/>
<rect fill="#830445" height="10" width="10" x="245.3351127471336" y="-92.385117462149"/>
<rect fill="#830445" height="10" width="10" x="222.0904516915904" y="-6.9299453598602305"/>
<rect fill="#830445" height="10" width="10" x="249.8821861089585" y="-109.10256444177215"/>
<rect fill="#830445" height="10" width="10" x="233.41872875820914" y="-168.69584399274083"/>
<rect fill="#830445" height="10" width="10" x="184.08078143813282" y="-109.77795429861064"/>
<rect fill="#830445" height="10" width="10" x="168.51929430150395" y="-38.16731579720556"/>
<rect fill="#830445" height="10" width="10" x="244.5468817921614" y="-112.19029103812977"/>
<rect fill="#830445" height="10" width="10" x="116.8927592244426" y="-59.44929072602931"/>
<rect fill="#830445" height="10" width="10" x="227.0397770938504" y="-123.79349010448543"/>
<rect fill="#830445" height="10" width="10" x="13.199728067091606" y="-98.06693598517784"/>
<rect fill="#830445" height="10" width="10" x="111.31959511975367" y="-34.49295727825732"/>
<rect fill="#830445" height="10" width="10" x="25.843669512218487" y="-127.3284399022186"/>
<rect fill="#830445" height="10" width="10" x="8.426925526075275" y="-75.48488536127186"/>
<rect fill="#830445" height="10" width="10" x="242.3135175063331" y="-111.69598810884573"/>
<rect fill="#830445" height="10" width="10" x="56.42310183923888" y="-97.36967360238806"/>
<rect fill="#830445" height="10" width="10" x="48.00793026068554" y="-78.47087542802439"/>
<rect fill="#830445" height="10" width="10" x="314.7368708840521" y="-127.76976841875744"/>
<rect fill="#830445" height="10" width="10" x="220.8567393813452" y="-111.30105140333403"/>
<rect fill="#830445" height="10" width="10" x="183.68466487510028" y="-142.36873638577353"/>
<rect fill="#830445" height="10" width="10" x="35.269171770046924" y="-133.98079790791255"/>
<rect fill="#830445" height="10" width="10" x="59.242876830900485" y="-125.35635642700456"/>
<rect fill="#830445" height="10" width="10" x="106.98261949326903" y="-9.001484708242259"/>
<rect fill="#830445" height="10" width="10" x="125.89706462702449" y="-140.183120759724"/>
<rect fill="#830445" height="10" width="10" x="69.55787906290534" y="-72.34584091473798"/>
<rect fill="#830445" height="10" width="10" x="85.40053303481177" y="-24.92357730125961"/>
<rect fill="#830445" height="10" width="10" x="108.77992966612032" y="-12.057491564252159"/>
<rect fill="#830445" height="10" width="10" x="80.79083547403357" y="-117.02435376497621"/>
<rect fill="#830445" height="10" width="10" x="237.84579094450314" y="-41.016138735960915"/>
<rect fill="#830445" height="10" width="10" x="186.79252892494148" y="-128.00388029157995"/>
<rect fill="#830445" height="10" width="10" x="194.12793732997733" y="-176.86673383618717"/>
<rect fill="#830445" height="10" width="10" x="219.65932148192366" y="-166.1194110586065"/>
<rect fill="#830445" height="10" width="10" x="211.72896697553756" y="-112.11238978076372"/>
<rect fill="#830445" height="10" width="10" x="96.80215846278941" y="-128.30358783514555"/>
<rect fill="#830445" height="10" width="10" x="6.4475760501703085" y="-12.045420258758442"/>
<rect fill="#830445" height="10" width="10" x="410.94769014300783" y="-34.82922438682056"/>
<rect fill="#830445" height="10" width="10" x="94.97426902159712" y="-68.13975402741758"/>
<rect fill="#830445" height="10" width="10" x="239.89310648414266" y="-123.55525355420744"/>
<rect fill="#830445" height="10" width="10" x="106.60271505636403" y="-37.033175289452096"/>
<rect fill="#830445" height="10" width="10" x="400.7501928176999" y="-63.8011010481366"/>
<rect fill="#830445" height="10" width="10" x="102.01002588651775" y="-154.64522739013665"/>
<rect fill="#830445" height="10" width="10" x="110.06211063299409" y="-140.57427729909023"/>
<rect fill="#830445" height="10" width="10" x="27.16860047124232" y="-167.35894332471702"/>
<rect fill="#830445" height="10" width="10" x="234.21007509809866" y="-158.8205433415781"/>
<rect fill="#830445" height="10" width="10" x="21.72284324122206" y="-52.948866249824384"/>
<rect fill="#830445" height="10" width="10" x="7.1855640079051035" y="-48.73429524743462"/>
<rect fill="#830445" height="10" width="10" x="214.14423122743733" y="-190.76966283896746"/>
<rect fill="#830445" height="10" width="10" x="92.6463475627679" y="-146.2270738778759"/>
<rect fill="#830445" height="10" width="10" x="306.72966548575494" y="-65.70863227404628"/>
<rect fill="#830445" height="10" width="10" x="198.81019195174002" y="-16.79797092499376"/>
<rect fill="#830445" height="10" width="10" x="155.8994564490601" y="-79.05769337418405"/>
<rect fill="#830445" height="10" width="10" x="84.318452652443" y="-70.57837492245535"/>
<rect fill="#830445" height="10" width="10" x="342.54447500644375" y="-83.51004366175496"/>
<rect fill="#830445" height="10" width="10" x="122.14647931710832" y="-72.16654487362823"/>
<rect fill="#830445" height="10" width="10" x="17.374947000464708" y="-72.2857514867487"/>
<rect fill="#830445" height="10" width="10" x="219.0464379749505" y="-59.63817994706513"/>
<rect fill="#830445" height="10" width="10" x="143.6486924848544" y="-68.57292377466128"/>
<rect fill="#830445" height="10" width="10" x="177.86816927430397" y="-43.89753077615234"/>
<rect fill="#830445" height="10" width="10" x="229.61483493231896" y="-21.260483410170988"/>
<rect fill="#830445" height="10" width="10" x="-2.772977477002212" y="-118.50425732687907"/>
<rect fill="#830445" height="10" width="10" x="94.39696620138469" y="-15.011072176201635"/>
<rect fill="#830445" height="10" width="10" x="24.204199141230543" y="-97.47137943139855"/>
<rect fill="#830445" height="10" width="10" x="133.36362632225314" y="-166.34413524740216"/>
<rect fill="#830445" height="10" width="10" x="16.87570293940876" y="-125.60629529292824"/>
<rect fill="#830445" height="10" width="10" x="191.54539137039222" y="-39.67547983648343"/>
<rect fill="#830445" height="10" width="10" x="115.06037978283287" y="-124.66870807661273"/>
<rect fill="#830445" height="10" width="10" x="102.9900127713205" y="-102.66595886438547"/>
<rect fill="#830445" height="10" width="10" x="22.110960767221275" y="-94.16723276407743"/>
<rect fill="#830445" height="10" width="10" x="167.82000348033426" y="-74.93411889967963"/>
<rect fill="#830445" height="10" width="10" x="279.7082190629549" y="-67.88095290003193"/>
<rect fill="#830445" height="10" width="10" x="187.74505197728539" y="-130.26081393302516"/>
<rect fill="#830445" height="10" width="10" x="188.64874747487255" y="-10.177095738282347"/>
<rect fill="#830445" height="10" width="10" x="28.67299472351941" y="-81.4549676815262"/>
<rect fill="#830445" height="10" width="10" x="92.0474776298464" y="-173.99246123053436"/>
<rect fill="#830445" height="10" width="10" x="107.80292470247953" y="-108.25790585102577"/>
<rect fill="#830445" height="10" width="10" x="79.95673560376436" y="-58.044768466419285"/>
<rect fill="#830445" height="10" width="10" x="154.08114392583838" y="-159.77875537920355"/>
<rect fill="#830445" height="10" width="10" x="51.7653565063168" y="-126.97565144671027"/>
<rect fill="#830445" height="10" width="10" x="329.5963575268239" y="-23.349580907047603"/>
<rect fill="#830445" height="10" width="10" x="126.96741056877289" y="-156.26005100497045"/>
<rect fill="#830445" height="10" width="10" x="197.6811243246271" y="-10.00109777650082"/>
<rect fill="#830445" height="10" width="10" x="108.95351967039537" y="-53.09580528298604"/>
<rect fill="#830445" height="10" width="10" x="184.2346114573067" y="-93.60417635246957"/>
<rect fill="#830445" height="10" width="10" x="165.2694703434788" y="-118.56262175005581"/>
<rect fill="#830445" height="10" width="10" x="246.61049718471867" y="-129.42317794289738"/>
<rect fill="#830445" height="10" width="10" x="312.1651939558561" y="-54.26985308929719"/>
<rect fill="#830445" height="10" width="10" x="224.26488823190147" y="-20.340649338385052"/>
<rect fill="#830445" height="10" width="10" x="354.95286489957357" y="-37.04442974208375"/>
<rect fill="#830445" height="10" width="10" x="42.81949380693711" y="-70.75392838952749"/>
<rect fill="#830445" height="10" width="10" x="112.98318815397916" y="-99.20101772287889"/>
<rect fill="#830445" height="10" width="10" x="80.59032813273731" y="-84.29473174380553"/>
<rect fill="#830445" height="10" width="10" x="166.71235965379964" y="-92.11398897740777"/>
<rect fill="#830445" height="10" width="10" x="220.47228071088495" y="-179.48597010541073"/>
<rect fill="#830445" height="10" width="10" x="171.132677535161" y="-5.207773974706605"/>
<rect fill="#830445" height="10" width="10" x="179.08868923440775" y="-18.05854832960916"/>
<rect fill="#830445" height="10" width="10" x="231.24585180042567" y="-113.68888059280975"/>
<rect fill="#830445" height="10" width="10" x="197.1881013893589" y="-134.92422673382887"/>
<rect fill="#830445" height="10" width="10" x="223.79987257367543" y="-135.65066949350867"/>
<rect fill="#830445" height="10" width="10" x="97.17552419133563" y="-111.99385687124183"/>
<rect fill="#830445" height="10" width="10" x="40.962482016734555" y="-173.0585891039226"/>
<rect fill="#830445" height="10" width="10" x="80.94064598503329" y="-49.13523257591915"/>
<rect fill="#830445" height="10" width="10" x="345.5351961013165" y="-96.19546071567967"/>
<rect fill="#830445" height="10" width="10" x="189.91262840224982" y="-110.70738031672974"/>
<rect fill="#830445" height="10" width="10" x="160.7949752835482" y="-56.225686381889396"/>
<rect fill="#830445" height="10" width="10" x="107.67900733916215" y="-73.24795906879977"/>
<rect fill="#830445" height="10" width="10" x="329.5238886170765" y="-50.92606081928927"/>
<rect fill="#830445" height="10" width="10" x="231.2835174216907" y="-134.3716386105361"/>
<rect fill="#830445" height="10" width="10" x="117.01756764305688" y="-107.8827013457566"/>
<rect fill="#830445" height="10" width="10" x="203.24949592103886" y="-8.975852655086317"/>
<rect fill="#830445" height="10" width="10" x="248.2331806088045" y="-144.3395789286663"/>
<rect fill="#830445" height="10" width="10" x="33.22192519569219" y="-156.35705705886792"/>
<rect fill="#830445" height="10" width="10" x="179.81109256365374" y="-48.23010142834802"/>
<rect fill="#830445" height="10" width="10" x="95.99147851269154" y="-44.7817956896957"/>
<rect fill="#830445" height="10" width="10" x="117.42835086556934" y="-165.93586807431797"/>
<rect fill="#830445" height="10" width="10" x="56.911777311783524" y="-60.41928620256861"/>
<rect fill="#830445" height="10" width="10" x="72.6951911847157" y="-135.98258511024878"/>
<rect fill="#830445" height="10" width="10" x="18.72195165217223" y="-16.578390818880074"/>
<rect fill="#830445" height="10" width="10" x="58.0740542293059" y="-63.9685610521298"/>
<rect fill="#830445" height="10" width="10" x="122.39149324170926" y="-158.18665126220498"/>
<rect fill="#830445" height="10" width="10" x="338.5700231538973" y="-73.78089006372207"/>
<rect fill="#830445" height="10" width="10" x="78.07450368556809" y="-84.18520634346866"/>
<rect fill="#830445" height="10" width="10" x="92.45016647954914" y="-65.70539813045426"/>
<rect fill="#830445" height="10" width="10" x="277.4069770656852" y="-42.66124412931062"/>
<rect fill="#830445" height="10" width="10" x="194.3190771445963" y="-106.23198969652036"/>
<rect fill="#830445" height="10" width="10" x="199.6887366669591" y="-139.59935066842664"/>
<rect fill="#830445" height="10" width="10" x="49.69505067376239" y="-139.89463705427087"/>
<rect fill="#830445" height="10" width="10" x="264.0933861829766" y="-34.484052254775925"/>
<rect fill="#830445" height="10" width="10" x="68.1197824414833" y="-107.30976022705526"/>
<rect fill="#830445" height="10" width="10" x="160.47205553131383" y="-96.37057094433185"/>
</g>
<g>
<circle cx="156.1339975808202" cy="-87.76002316306588" fill="#830445" r="5"/>
</g>
<g>
<rect fill="#26991" height="10" width="10" x="385.6898368671824" y="-188.7943109317249"/>
<rect fill="#26991" height="10" width="10" x="285.0536790112952" y="-250.41646750482178"/>
<rect fill="#26991" height="10" width="10" x="333.3996647209695" y="-188.63014111968002"/>
<rect fill="#26991" height="10" width="10" x="391.4010586858946" y="-185.08615386552964"/>
<rect fill="#26991" height="10" width="10" x="502.63790279939514" y="-287.3518781747307"/>
<rect fill="#26991" height="10" width="10" x="303.20190753357303" y="-316.8333478259891"/>
<rect fill="#26991" height="10" width="10" x="346.55488902193025" y="-277.2598983301315"/>
<rect fill="#26991" height="10" width="10" x="401.0558596478378" y="-325.74509998506454"/>
<rect fill="#26991" height="10" width="10" x="415.10411351302264" y="-198.13263439276668"/>
<rect fill="#26991" height="10" width="10" x="351.3971303423702" y="-229.38761052747464"/>
<rect fill="#26991" height="10" width="10" x="483.63626753097" y="-282.2538056291808"/>
<rect fill="#26991" height="10" width="10" x="327.73430164935985" y="-341.79008221735097"/>
<rect fill="#26991" height="10" width="10" x="316.03423241068765" y="-213.44755310181768"/>
<rect fill="#26991" height="10" width="10" x="402.2087013248714" y="-315.1589687075582"/>
<rect fill="#26991" height="10" width="10" x="473.4220222856002" y="-207.5676101768201"/>
<rect fill="#26991" height="10" width="10" x="496.8637080697737" y="-344.0705792077783"/>
<rect fill="#26991" height="10" width="10" x="250.65321259693738" y="-324.52858198615365"/>
<rect fill="#26991" height="10" width="10" x="420.9469135160196" y="-283.74577525738346"/>
<rect fill="#26991" height="10" width="10" x="416.1498169202038" y="-235.65069831291603"/>
<rect fill="#26991" height="10" width="10" x="477.6122002234383" y="-103.18718954324177"/>
<rect fill="#26991" height="10" width="10" x="432.52752339365605" y="-332.9732136692674"/>
<rect fill="#26991" height="10" width="10" x="472.4139791032085" y="-162.38930499133127"/>
<rect fill="#26991" height="10" width="10" x="489.93021001447215" y="-239.70008250593787"/>
<rect fill="#26991" height="10" width="10" x="312.8452898982626" y="-296.93244357590214"/>
<rect fill="#26991" height="10" width="10" x="458.71779939819305" y="-217.51326114425927"/>
<rect fill="#26991" height="10" width="10" x="408.2143592124345" y="-265.4063508443104"/>
<rect fill="#26991" height="10" width="10" x="427.25850536959734" y="-291.5079749250225"/>
<rect fill="#26991" height="10" width="10" x="407.082791034634" y="-297.667087023431"/>
<rect fill="#26991" height="10" width="10" x="413.30155268393935" y="-271.11749683982714"/>
<rect fill="#26991" height="10" width="10" x="459.25718305319" y="-43.9132948266221"/>
<rect fill="#26991" height="10" width="10" x="446.1044025779823" y="-274.0384758934913"/>
<rect fill="#26991" height="10" width="10" x="429.6624121332361" y="-191.45062119178402"/>
<rect fill="#26991" height="10" width="10" x="316.44606243926034" y="-193.16581175784728"/>
<rect fill="#26991" height="10" width="10" x="387.71267396912805" y="-253.65203994526541"/>
<rect fill="#26991" height="10" width="10" x="444.29311570881583" y="-211.03828945923084"/>
<rect fill="#26991" height="10" width="10" x="277.1526341273837" y="-337.6543316450732"/>
<rect fill="#26991" height="10" width="10" x="500.09252758904705" y="-195.7797557891404"/>
<rect fill="#26991" height="10" width="10" x="478.70540502830056" y="-197.44181168046336"/>
<rect fill="#26991" height="10" width="10" x="404.157080929767" y="-250.26450374616053"/>
<rect fill="#26991" height="10" width="10" x="258.4829058681464" y="-185.45471631714716"/>
<rect fill="#26991" height="10" width="10" x="263.304250568454" y="-323.8865021857463"/>
<rect fill="#26991" height="10" width="10" x="271.5691326698048" y="-288.4660312137873"/>
<rect fill="#26991" height="10" width="10" x="486.1353885892895" y="-325.2158670818668"/>
<rect fill="#26991" height="10" width="10" x="496.81572748885753" y="-292.7245136690471"/>
<rect fill="#26991" height="10" width="10" x="321.9274223853288" y="-182.94358209382278"/>
<rect fill="#26991" height="10" width="10" x="344.5621969035743" y="-335.3505079361827"/>
<rect fill="#26991" height="10" width="10" x="462.8418945736019" y="-196.04379345742342"/>
<rect fill="#26991" height="10" width="10" x="475.94553628587556" y="-317.4280747887088"/>
<rect fill="#26991" height="10" width="10" x="475.988483464414" y="-323.07881124576716"/>
<rect fill="#26991" height="10" width="10" x="346.7881742100949" y="-167.97103097792095"/>
<rect fill="#26991" height="10" width="10" x="341.2175589996883" y="-229.37251606865593"/>
<rect fill="#26991" height="10" width="10" x="332.62259718400367" y="-223.46615022940713"/>
<rect fill="#26991" height="10" width="10" x="295.5747698973469" y="-184.27980124934513"/>
<rect fill="#26991" height="10" width="10" x="393.9154365851025" y="-228.13754713309186"/>
<rect fill="#26991" height="10" width="10" x="293.02150189878057" y="-240.53254367452377"/>
<rect fill="#26991" height="10" width="10" x="346.5862511148882" y="-314.0824802131553"/>
<rect fill="#26991" height="10" width="10" x="276.75514447468305" y="-307.3799244500755"/>
<rect fill="#26991" height="10" width="10" x="478.4048365585809" y="-204.8070270039376"/>
<rect fill="#26991" height="10" width="10" x="286.3500335852625" y="-251.2648816052074"/>
<rect fill="#26991" height="10" width="10" x="318.2690014630451" y="-232.9430288447391"/>
<rect fill="#26991" height="10" width="10" x="503.83803398880184" y="-149.11542662052898"/>
<rect fill="#26991" height="10" width="10" x="410.88838556867205" y="-332.6335326445345"/>
<rect fill="#26991" height="10" width="10" x="441.8225886682538" y="-168.46445029510016"/>
<rect fill="#26991" height="10" width="10" x="394.5134207762525" y="-185.47701061989432"/>
<rect fill="#26991" height="10" width="10" x="396.7728517866906" y="-328.59961104139904"/>
<rect fill="#26991" height="10" width="10" x="299.8214322908155" y="-249.35236373688258"/>
<rect fill="#26991" height="10" width="10" x="414.18492437604357" y="-249.4574884917211"/>
<rect fill="#26991" height="10" width="10" x="341.14807566436923" y="-301.02253685823274"/>
<rect fill="#26991" height="10" width="10" x="224.06310920821025" y="-219.8849765162094"/>
<rect fill="#26991" height="10" width="10" x="344.2153009197506" y="-319.73164120452145"/>
<rect fill="#26991" height="10" width="10" x="338.0807162137708" y="-320.1914587661711"/>
<rect fill="#26991" height="10" width="10" x="394.1934798481784" y="-229.3731471977635"/>
<rect fill="#26991" height="10" width="10" x="312.6685122213337" y="-317.6964478890494"/>
<rect fill="#26991" height="10" width="10" x="299.5478885139472" y="-331.00990741129533"/>
<rect fill="#26991" height="10" width="10" x="427.1575435345736" y="-194.85903415677882"/>
<rect fill="#26991" height="10" width="10" x="490.3119292209429" y="-230.1286779866456"/>
<rect fill="#26991" height="10" width="10" x="502.21287141202504" y="-69.130879606544"/>
<rect fill="#26991" height="10" width="10" x="453.8751087993895" y="-317.07409740665855"/>
<rect fill="#26991" height="10" width="10" x="458.1539740543267" y="-192.33147749623018"/>
<rect fill="#26991" height="10" width="10" x="495.58508746172447" y="-232.9638404121717"/>
<rect fill="#26991" height="10" width="10" x="247.89340909260505" y="-326.59903342988605"/>
<rect fill="#26991" height="10" width="10" x="481.19390422648223" y="-214.46888271034513"/>
<rect fill="#26991" height="10" width="10" x="455.9006972968894" y="-319.2212905626031"/>
<rect fill="#26991" height="10" width="10" x="471.9097765722099" y="-338.45574944407184"/>
<rect fill="#26991" height="10" width="10" x="376.5211384112205" y="-187.7180148799844"/>
<rect fill="#26991" height="10" width="10" x="467.6966282664036" y="-113.58092146411101"/>
<rect fill="#26991" height="10" width="10" x="283.2963818306026" y="-296.30881998506436"/>
<rect fill="#26991" height="10" width="10" x="303.8349810710148" y="-315.80208781368896"/>
<rect fill="#26991" height="10" width="10" x="281.1305820592175" y="-245.48718658831618"/>
<rect fill="#26991" height="10" width="10" x="387.1392802600466" y="-298.47353217426456"/>
<rect fill="#26991" height="10" width="10" x="489.743541362615" y="-261.48929250198495"/>
<rect fill="#26991" height="10" width="10" x="366.607483261851" y="-310.15143469230367"/>
<rect fill="#26991" height="10" width="10" x="395.9469371191563" y="-205.4564619360633"/>
<rect fill="#26991" height="10" width="10" x="259.88053542454895" y="-229.65231786992575"/>
<rect fill="#26991" height="10" width="10" x="282.34474788576256" y="-263.8169246798884"/>
<rect fill="#26991" height="10" width="10" x="480.10828302635036" y="-161.0415208871394"/>
<rect fill="#26991" height="10" width="10" x="315.9819270610934" y="-193.23279636589874"/>
<rect fill="#26991" height="10" width="10" x="465.0656319671126" y="-291.03961936826477"/>
<rect fill="#26991" height="10" width="10" x="281.30589995895156" y="-175.3624063162136"/>
<rect fill="#26991" height="10" width="10" x="368.2145577635766" y="-321.5891229343887"/>
<rect fill="#26991" height="10" width="10" x="280.49002618719277" y="-187.2551885496335"/>
<rect fill="#26991" height="10" width="10" x="486.46362466801276" y="-211.1180102981732"/>
<rect fill="#26991" height="10" width="10" x="288.6818438198168" y="-205.20688154567415"/>
<rect fill="#26991" height="10" width="10" x="383.30088247888636" y="-289.0485521651275"/>
<rect fill="#26991" height="10" width="10" x="502.71084779083003" y="-304.6573579648223"/>
<rect fill="#26991" height="10" width="10" x="406.3974556227296" y="-246.83581604920158"/>
<rect fill="#26991" height="10" width="10" x="384.45117611046606" y="-305.394723537333"/>
<rect fill="#26991" height="10" width="10" x="390.4528210984085" y="-306.91565413407983"/>
<rect fill="#26991" height="10" width="10" x="302.5394261180203" y="-273.2106746344784"/>
<rect fill="#26991" height="10" width="10" x="253.28150600901927" y="-224.69882556664524"/>
<rect fill="#26991" height="10" width="10" x="475.49389393409064" y="-226.82344083755916"/>
<rect fill="#26991" height="10" width="10" x="263.70460464921337" y="-196.5739210789962"/>
<rect fill="#26991" height="10" width="10" x="469.51082377865106" y="-72.35671161646077"/>
<rect fill="#26991" height="10" width="10" x="305.38316763497005" y="-181.9535412807914"/>
<rect fill="#26991" height="10" width="10" x="502.70510528295154" y="-104.68979600921116"/>
<rect fill="#26991" height="10" width="10" x="433.6485992391087" y="-228.26357324975203"/>
<rect fill="#26991" height="10" width="10" x="498.8594843014459" y="-92.34272325539966"/>
<rect fill="#26991" height="10" width="10" x="372.81040100291045" y="-254.23242794493825"/>
<rect fill="#26991" height="10" width="10" x="478.5931027690675" y="-44.46099123771845"/>
<rect fill="#26991" height="10" width="10" x="457.0326285347508" y="-205.14885334612697"/>
<rect fill="#26991" height="10" width="10" x="426.12262758444047" y="-233.88961051653774"/>
<rect fill="#26991" height="10" width="10" x="449.6010525946811" y="-258.69815309847615"/>
<rect fill="#26991" height="10" width="10" x="371.9401109702083" y="-225.5960304722301"/>
<rect fill="#26991" height="10" width="10" x="327.3893472328966" y="-201.8756741850562"/>
<rect fill="#26991" height="10" width="10" x="464.8029411031715" y="-293.4596323835442"/>
<rect fill="#26991" height="10" width="10" x="439.93834598121265" y="-234.2060957522122"/>
<rect fill="#26991" height="10" width="10" x="332.34012104127885" y="-319.0408220769458"/>
<rect fill="#26991" height="10" width="10" x="398.03138246059626" y="-332.26329934140153"/>
<rect fill="#26991" height="10" width="10" x="424.7699280933577" y="-273.1228296199091"/>
<rect fill="#26991" height="10" width="10" x="409.3612107156182" y="-325.0676316949775"/>
<rect fill="#26991" height="10" width="10" x="432.91032463468366" y="-344.3911476528891"/>
<rect fill="#26991" height="10" width="10" x="425.3821756156302" y="-258.8448038538261"/>
<rect fill="#26991" height="10" width="10" x="409.44350596266395" y="-314.44403075660034"/>
</g>
<g>
<circle cx="395.7295280042964" cy="-241.32335878467302" fill="#26991" r="5"/>
</g>
<g>
<rect fill="#584559" height="10" width="10" x="55.124366109390124" y="-291.5915685035427"/>
<rect fill="#584559" height="10" width="10" x="-1.952438847126622" y="-283.20144341671136"/>
<rect fill="#584559" height="10" width="10" x="17.87860725242314" y="-287.9440536564042"/>
<rect fill="#584559" height="10" width="10" x="97.9746364762101" y="-306.67027380510655"/>
<rect fill="#584559" height="10" width="10" x="60.47375979887555" y="-279.4532815480275"/>
<rect fill="#584559" height="10" width="10" x="26.74210766546426" y="-311.64502475018475"/>
<rect fill="#584559" height="10" width="10" x="46.3509020706815" y="-267.18002371684736"/>
<rect fill="#584559" height="10" width="10" x="201.55886196825287" y="-214.9814408307397"/>
<rect fill="#584559" height="10" width="10" x="74.92446324110315" y="-315.0250028120188"/>
<rect fill="#584559" height="10" width="10" x="-4.138593029773098" y="-265.2197300221894"/>
<rect fill="#584559" height="10" width="10" x="26.824142943961903" y="-320.61074051783766"/>
<rect fill="#584559" height="10" width="10" x="146.93556678157006" y="-340.78428116129896"/>
<rect fill="#584559" height="10" width="10" x="55.84867507410053" y="-298.5131190092217"/>
<rect fill="#584559" height="10" width="10" x="56.406501710214705" y="-304.4840891054034"/>
<rect fill="#584559" height="10" width="10" x="109.95625529458202" y="-318.629827891527"/>
<rect fill="#584559" height="10" width="10" x="87.11862230660776" y="-229.2607171693649"/>
<rect fill="#584559" height="10" width="10" x="55.01092665413803" y="-317.4638836233503"/>
<rect fill="#584559" height="10" width="10" x="56.03220815337305" y="-274.2339187524084"/>
<rect fill="#584559" height="10" width="10" x="67.0495638845135" y="-339.3974683831129"/>
<rect fill="#584559" height="10" width="10" x="77.29928794599772" y="-276.323388324934"/>
<rect fill="#584559" height="10" width="10" x="91.84233987362578" y="-291.715322608943"/>
<rect fill="#584559" height="10" width="10" x="120.41971864429324" y="-339.72537033243697"/>
<rect fill="#584559" height="10" width="10" x="68.13191861989834" y="-335.5181862302713"/>
<rect fill="#584559" height="10" width="10" x="11.408542816455757" y="-313.07256306996777"/>
<rect fill="#584559" height="10" width="10" x="44.97742964054332" y="-268.3627508799604"/>
<rect fill="#584559" height="10" width="10" x="12.590063680995364" y="-340.9777514282211"/>
<rect fill="#584559" height="10" width="10" x="58.991706538760205" y="-279.4502814788506"/>
<rect fill="#584559" height="10" width="10" x="27.456164550051817" y="-307.0093665361827"/>
<rect fill="#584559" height="10" width="10" x="102.61848242156611" y="-316.7139354274552"/>
<rect fill="#584559" height="10" width="10" x="129.58239760506768" y="-340.1529424423299"/>
<rect fill="#584559" height="10" width="10" x="14.742263792883648" y="-324.71061206754155"/>
<rect fill="#584559" height="10" width="10" x="-1.4281610183864686" y="-175.99018602637497"/>
<rect fill="#584559" height="10" width="10" x="39.84501222105213" y="-342.1983549290673"/>
<rect fill="#584559" height="10" width="10" x="61.01647219212545" y="-282.33412919007196"/>
<rect fill="#584559" height="10" width="10" x="47.63414463057558" y="-296.4812809952559"/>
<rect fill="#584559" height="10" width="10" x="60.40902571904385" y="-262.82308504154537"/>
<rect fill="#584559" height="10" width="10" x="69.51267579980083" y="-270.47738504257234"/>
<rect fill="#584559" height="10" width="10" x="79.74166213688183" y="-298.5299632265534"/>
<rect fill="#584559" height="10" width="10" x="41.012357039319106" y="-305.6737949357376"/>
<rect fill="#584559" height="10" width="10" x="8.964834089546704" y="-268.52085044701425"/>
<rect fill="#584559" height="10" width="10" x="43.47393187835487" y="-271.50582810309186"/>
<rect fill="#584559" height="10" width="10" x="19.3288281659125" y="-325.02482158976596"/>
<rect fill="#584559" height="10" width="10" x="109.03069286324785" y="-302.9974940928197"/>
<rect fill="#584559" height="10" width="10" x="45.93511358464772" y="-337.44100435966703"/>
<rect fill="#584559" height="10" width="10" x="52.75149253673335" y="-334.3062842004052"/>
<rect fill="#584559" height="10" width="10" x="83.79792600177663" y="-261.81058120896444"/>
<rect fill="#584559" height="10" width="10" x="80.04069196570038" y="-332.52690507475313"/>
<rect fill="#584559" height="10" width="10" x="108.98461211438321" y="-317.00197184327766"/>
<rect fill="#584559" height="10" width="10" x="41.81485356877824" y="-317.06692304508135"/>
<rect fill="#584559" height="10" width="10" x="0.7186472749592197" y="-262.6751641703864"/>
<rect fill="#584559" height="10" width="10" x="-4.06143741315971" y="-243.35958076613483"/>
<rect fill="#584559" height="10" width="10" x="6.501515393530838" y="-261.7128648931058"/>
<rect fill="#584559" height="10" width="10" x="24.63617828500943" y="-276.2401224357742"/>
<rect fill="#584559" height="10" width="10" x="77.62685516069845" y="-297.2249676047525"/>
<rect fill="#584559" height="10" width="10" x="65.2579124486947" y="-265.41492816120746"/>
<rect fill="#584559" height="10" width="10" x="71.76978429057995" y="-288.5570624100677"/>
<rect fill="#584559" height="10" width="10" x="16.324345988749556" y="-328.95137525301936"/>
<rect fill="#584559" height="10" width="10" x="5.083127033925219" y="-276.7772894429342"/>
<rect fill="#584559" height="10" width="10" x="48.44941212156287" y="-340.751260119338"/>
<rect fill="#584559" height="10" width="10" x="13.682580890610549" y="-305.89303460891966"/>
<rect fill="#584559" height="10" width="10" x="33.762735269125315" y="-276.3607676669513"/>
<rect fill="#584559" height="10" width="10" x="91.36550491194843" y="-269.4831169484042"/>
<rect fill="#584559" height="10" width="10" x="29.268110090625832" y="-275.36803925080545"/>
<rect fill="#584559" height="10" width="10" x="208.1998038321596" y="-234.17268533842616"/>
<rect fill="#584559" height="10" width="10" x="69.26722804341877" y="-290.35709443761505"/>
<rect fill="#584559" height="10" width="10" x="56.62683539320248" y="-268.89424453162644"/>
<rect fill="#584559" height="10" width="10" x="172.1968589722349" y="-294.4401452050869"/>
<rect fill="#584559" height="10" width="10" x="87.91347853715887" y="-277.93847478575606"/>
<rect fill="#584559" height="10" width="10" x="108.01666098025471" y="-308.65367163599706"/>
<rect fill="#584559" height="10" width="10" x="59.85148309803425" y="-305.8669900021547"/>
<rect fill="#584559" height="10" width="10" x="59.35500182504708" y="-300.6101565977226"/>
<rect fill="#584559" height="10" width="10" x="118.607939848296" y="-271.3032827916769"/>
<rect fill="#584559" height="10" width="10" x="54.1391271613913" y="-323.1391036771151"/>
<rect fill="#584559" height="10" width="10" x="2.518959990374869" y="-261.07797160660346"/>
<rect fill="#584559" height="10" width="10" x="-0.5989664675869575" y="-278.9650234568799"/>
<rect fill="#584559" height="10" width="10" x="122.1744929943637" y="-297.66591026278735"/>
<rect fill="#584559" height="10" width="10" x="70.46258558468737" y="-341.89123650219295"/>
<rect fill="#584559" height="10" width="10" x="52.62688172291642" y="-335.2353046996354"/>
<rect fill="#584559" height="10" width="10" x="228.05696714419065" y="-305.0562880021779"/>
<rect fill="#584559" height="10" width="10" x="40.35467423623894" y="-326.510942392942"/>
<rect fill="#584559" height="10" width="10" x="42.134225567427016" y="-277.1951154354473"/>
<rect fill="#584559" height="10" width="10" x="-1.4381636038089112" y="-309.5122201739895"/>
<rect fill="#584559" height="10" width="10" x="51.599218973925964" y="-300.18639138292866"/>
<rect fill="#584559" height="10" width="10" x="74.1809297914165" y="-286.04437496672756"/>
<rect fill="#584559" height="10" width="10" x="62.21300218546246" y="-304.6528663894572"/>
<rect fill="#584559" height="10" width="10" x="101.40650239878559" y="-333.2501906174181"/>
<rect fill="#584559" height="10" width="10" x="8.379761996373768" y="-291.22143127596576"/>
<rect fill="#584559" height="10" width="10" x="86.94664760812182" y="-340.143863527336"/>
<rect fill="#584559" height="10" width="10" x="14.593651367028446" y="-341.175821536533"/>
<rect fill="#584559" height="10" width="10" x="-2.357995634869698" y="-278.58097177654554"/>
<rect fill="#584559" height="10" width="10" x="34.63770603195023" y="-300.4669641777655"/>
<rect fill="#584559" height="10" width="10" x="44.25078699140523" y="-242.16753076920367"/>
<rect fill="#584559" height="10" width="10" x="103.66586370502974" y="-305.6190134451927"/>
<rect fill="#584559" height="10" width="10" x="71.33270971693563" y="-300.4423491960969"/>
<rect fill="#584559" height="10" width="10" x="77.93628578006846" y="-314.08838499574983"/>
<rect fill="#584559" height="10" width="10" x="52.2060995393129" y="-272.5605263281336"/>
<rect fill="#584559" height="10" width="10" x="49.58572817851554" y="-299.7992431858459"/>
<rect fill="#584559" height="10" width="10" x="-3.689591424759408" y="-317.9830388696834"/>
<rect fill="#584559" height="10" width="10" x="87.54131950408046" y="-284.87953582588744"/>
<rect fill="#584559" height="10" width="10" x="12.734309508670037" y="-294.28036849641245"/>
<rect fill="#584559" height="10" width="10" x="86.70613327523101" y="-284.93687368799885"/>
<rect fill="#584559" height="10" width="10" x="86.06121825380755" y="-276.63718554001457"/>
<rect fill="#584559" height="10" width="10" x="114.52601860330105" y="-287.63338996774445"/>
<rect fill="#584559" height="10" width="10" x="96.81715046089927" y="-338.54087082634476"/>
<rect fill="#584559" height="10" width="10" x="39.57237877287089" y="-304.31392373157735"/>
<rect fill="#584559" height="10" width="10" x="65.62051238805951" y="-328.91217056417594"/>
<rect fill="#584559" height="10" width="10" x="99.40609624353897" y="-297.81345598186095"/>
<rect fill="#584559" height="10" width="10" x="61.89099066367348" y="-286.8270623793461"/>
<rect fill="#584559" height="10" width="10" x="27.318728381781156" y="-263.93567221237095"/>
<rect fill="#584559" height="10" width="10" x="44.63780660699659" y="-294.5351782748129"/>
<rect fill="#584559" height="10" width="10" x="77.95497311395224" y="-267.34670027902837"/>
<rect fill="#584559" height="10" width="10" x="211.3909175328491" y="-293.6489326532559"/>
<rect fill="#584559" height="10" width="10" x="80.31569268152181" y="-272.6917225554312"/>
<rect fill="#584559" height="10" width="10" x="45.63921083504917" y="-326.16779218920453"/>
<rect fill="#584559" height="10" width="10" x="80.11511610180693" y="-329.850280454033"/>
<rect fill="#584559" height="10" width="10" x="183.85910428410443" y="-288.4216896368656"/>
<rect fill="#584559" height="10" width="10" x="96.90438574792316" y="-332.1574292400761"/>
<rect fill="#584559" height="10" width="10" x="-1.3529056540638331" y="-267.02748640613447"/>
<rect fill="#584559" height="10" width="10" x="95.26042457760778" y="-338.8859575219771"/>
<rect fill="#584559" height="10" width="10" x="57.93459430596481" y="-204.69061113802948"/>
<rect fill="#584559" height="10" width="10" x="101.94271639749275" y="-264.18176489173595"/>
<rect fill="#584559" height="10" width="10" x="91.54203083048694" y="-302.3873801194019"/>
<rect fill="#584559" height="10" width="10" x="218.7633083810594" y="-302.8220575235411"/>
<rect fill="#584559" height="10" width="10" x="45.296997440689466" y="-312.06788589136295"/>
<rect fill="#584559" height="10" width="10" x="241.0636600225659" y="-324.60041917324355"/>
</g>
<g>
<circle cx="71.36197728161345" cy="-290.82852318179596" fill="#584559" r="5"/>
</g>
<g>
<g>
<line stroke="black" stroke-width="1" x1="51" x2="51" y1="0" y2="10"/>
<line stroke="black" stroke-width="1" x1="153" x2="153" y1="0" y2="10"/>
<line stroke="black" stroke-width="1" x1="255" x2="255" y1="0" y2="10"/>
<line stroke="black" stroke-width="1" x1="357" x2="357" y1="0" y2="10"/>
<line stroke="black" stroke-width="1" x1="459" x2="459" y1="0" y2="10"/>
</g>
<line stroke="black" stroke-width="1" x1="0" x2="510" y1="0" y2="0"/>
<g>
<text font-size="12" text-anchor="middle" x="51" y="20">
-4
</text>
<text font-size="12" text-anchor="middle" x="153" y="20">
-2
</text>
<text font-size="12" text-anchor="middle" x="255" y="20">
0
</text>
<text font-size="12" text-anchor="middle" x="357" y="20">
2
</text>
<text font-size="12" text-anchor="middle" x="459" y="20">
4
</text>
</g>
<text font-size="12" text-anchor="middle" x="255" y="30">
x-axis
</text>
</g>
<g>
<g>
<line stroke="black" stroke-width="1" x1="0" x2="-10" y1="-34" y2="-34"/>
<line stroke="black" stroke-width="1" x1="0" x2="-10" y1="-102" y2="-102"/>
<line stroke="black" stroke-width="1" x1="0" x2="-10" y1="-170" y2="-170"/>
<line stroke="black" stroke-width="1" x1="0" x2="-10" y1="-238" y2="-238"/>
<line stroke="black" stroke-width="1" x1="0" x2="-10" y1="-306" y2="-306"/>
</g>
<line stroke="black" stroke-width="1" x1="0" x2="0" y1="0" y2="-340"/>
<g>
<text dominant-baseline="middle" font-size="12" text-anchor="end" x="-15" y="-34">
-4
</text>
<text dominant-baseline="middle" font-size="12" text-anchor="end" x="-15" y="-102">
-2
</text>
<text dominant-baseline="middle" font-size="12" text-anchor="end" x="-15" y="-170">
0
</text>
<text dominant-baseline="middle" font-size="12" text-anchor="end" x="-15" y="-238">
2
</text>
<text dominant-baseline="middle" font-size="12" text-anchor="end" x="-15" y="-306">
4
</text>
</g>
<text font-size="12" text-anchor="middle" transform="rotate(-90 -30 -170)" x="-30" y="-182">
y-axis
</text>
</g>
</g>
</svg>