<svg viewBox="0 0 600 400" xmlns="http://www.w3.org/2000/svg">
<g transform="translate(54, 364)">
<g>
<rect fill="green" height="10" width="10" x="425.0710422328014" y="-314.5950717273474"/>
<rect fill="green" height="10" width="10" x="423.09337256154424" y="-243.28275263213882"/>
<rect fill="green" height="10" width="10" x="416.4027838953246" y="-215.65168138570857"/>
<rect fill="green" height="10" width="10" x="337.5295958048741" y="-288.3306335410465"/>
<rect fill="green" height="10" width="10" x="284.0017303614585" y="-210.32426275019262"/>
<rect fill="green" height="10" width="10" x="482.74196090084007" y="-301.259438258218"/>
<rect fill="green" height="10" width="10" x="262.1327136108979" y="-298.0267476322655"/>
<rect fill="green" height="10" width="10" x="271.7673857732745" y="-250.04956495793505"/>
<rect fill="green" height="10" width="10" x="350.05789447876896" y="-210.3104599226912"/>
<rect fill="green" height="10" width="10" x="386.62271658284214" y="-245.89824253028897"/>
<rect fill="green" height="10" width="10" x="353.3668010384239" y="-315.11883541293474"/>
<rect fill="green" height="10" width="10" x="380.55638050745125" y="-212.2426030830665"/>
<rect fill="green" height="10" width="10" x="249.24006787634454" y="-329.70647092597477"/>
<rect fill="green" height="10" width="10" x="416.9976310597391" y="-327.2681553506744"/>
<rect fill="green" height="10" width="10" x="305.0323323110634" y="-177.30288653658795"/>
<rect fill="green" height="10" width="10" x="393.80028604573516" y="-314.24443698663015"/>
<rect fill="green" height="10" width="10" x="264.1946577868247" y="-324.91994381645566"/>
<rect fill="green" height="10" width="10" x="474.69132887717353" y="-219.48544030337393"/>
<rect fill="green" height="10" width="10" x="371.90286518492337" y="-112.34077435027828"/>
<rect fill="green" height="10" width="10" x="417.3497936736202" y="-212.5690527475987"/>
<rect fill="green" height="10" width="10" x="263.6355723765975" y="-275.0996429793358"/>
<rect fill="green" height="10" width="10" x="491.19401728694993" y="-292.05962404291347"/>
<rect fill="green" height="10" width="10" x="330.3755948145818" y="-268.6839588872752"/>
<rect fill="green" height="10" width="10" x="478.7125185280496" y="-201.82307990675653"/>
<rect fill="green" height="10" width="10" x="446.2386636774231" y="-217.08004933311"/>
<rect fill="green" height="10" width="10" x="401.68912836578414" y="-324.4465598001806"/>
<rect fill="green" height="10" width="10" x="480.91562842328983" y="-201.30274524206897"/>
<rect fill="green" height="10" width="10" x="278.36623742046254" y="-198.19747242026617"/>
<rect fill="green" height="10" width="10" x="492.0719903353189" y="-280.7271173838811"/>
<rect fill="green" height="10" width="10" x="381.6375170354086" y="-221.96332193229546"/>
<rect fill="green" height="10" width="10" x="403.0051857800999" y="-105.14284376771704"/>
<rect fill="green" height="10" width="10" x="396.7840921177052" y="-304.19297483595176"/>
<rect fill="green" height="10" width="10" x="250.14518083657518" y="-236.55698871004648"/>
<rect fill="green" height="10" width="10" x="413.15378346269534" y="-337.4252360214624"/>
<rect fill="green" height="10" width="10" x="484.4746030145241" y="-158.32815171548475"/>
<rect fill="green" height="10" width="10" x="333.875845007598" y="-235.90605107129392"/>
<rect fill="green" height="10" width="10" x="457.61064572661996" y="-188.88498086714623"/>
<rect fill="green" height="10" width="10" x="479.46829527853805" y="-302.46348612275824"/>
<rect fill="green" height="10" width="10" x="388.34285037645645" y="-281.37001331305794"/>
<rect fill="green" height="10" width="10" x="357.8970391735378" y="-236.55391317813582"/>
<rect fill="green" height="10" width="10" x="455.981872027583" y="-282.8430124221964"/>
<rect fill="green" height="10" width="10" x="498.0235219355709" y="-253.12430747400293"/>
<rect fill="green" height="10" width="10" x="438.52646939483975" y="-178.77524213311182"/>
<rect fill="green" height="10" width="10" x="317.6510503914636" y="-252.5036368363564"/>
<rect fill="green" height="10" width="10" x="277.0544719891673" y="-266.84408187848624"/>
<rect fill="green" height="10" width="10" x="347.58291354539205" y="-321.0728746684316"/>
<rect fill="green" height="10" width="10" x="342.2861777157593" y="-312.85026801911215"/>
<rect fill="green" height="10" width="10" x="379.1947641606381" y="-314.441637568444"/>
<rect fill="green" height="10" width="10" x="338.5903996934628" y="-291.0573369279649"/>
<rect fill="green" height="10" width="10" x="315.30171738291057" y="-342.13487425262525"/>
<rect fill="green" height="10" width="10" x="256.48567804683483" y="-203.29351954764422"/>
<rect fill="green" height="10" width="10" x="351.3962292567059" y="-272.46537811570823"/>
<rect fill="green" height="10" width="10" x="399.03804501561547" y="-125.41111448023784"/>
<rect fill="green" height="10" width="10" x="436.3025668131154" y="-253.41212630321212"/>
<rect fill="green" height="10" width="10" x="260.1783173955926" y="-275.2771830243961"/>
<rect fill="green" height="10" width="10" x="332.03337522877194" y="-225.23282503501977"/>
<rect fill="green" height="10" width="10" x="446.5828265499682" y="-332.2997339828453"/>
<rect fill="green" height="10" width="10" x="381.10705563456247" y="-310.8002832839701"/>
<rect fill="green" height="10" width="10" x="315.7497088037167" y="-308.1602027231547"/>
<rect fill="green" height="10" width="10" x="400.6673463733484" y="-338.1282493256682"/>
<rect fill="green" height="10" width="10" x="426.34079427014314" y="-185.1618879682731"/>
<rect fill="green" height="10" width="10" x="248.0682257866264" y="-305.57166390904126"/>
<rect fill="green" height="10" width="10" x="334.8809054328206" y="-287.02838041768166"/>
<rect fill="green" height="10" width="10" x="447.64503922549477" y="-334.71841372763953"/>
<rect fill="green" height="10" width="10" x="297.7843770385872" y="-180.03963952063143"/>
<rect fill="green" height="10" width="10" x="286.7108173322193" y="-285.0000219437232"/>
<rect fill="green" height="10" width="10" x="358.0060637275095" y="-329.38451116860205"/>
<rect fill="green" height="10" width="10" x="406.70002289275925" y="-287.53595457350735"/>
<rect fill="green" height="10" width="10" x="336.1971885440429" y="-279.80752940558426"/>
<rect fill="green" height="10" width="10" x="272.242682010047" y="-172.07298099410906"/>
<rect fill="green" height="10" width="10" x="473.05617698325585" y="-187.8543921443253"/>
<rect fill="green" height="10" width="10" x="402.48556303550606" y="-192.09712045008587"/>
<rect fill="green" height="10" width="10" x="448.61158909958056" y="-228.00107634145348"/>
<rect fill="green" height="10" width="10" x="363.84765714091145" y="-243.29159860049313"/>
<rect fill="green" height="10" width="10" x="251.90762608308194" y="-202.1952237359514"/>
<rect fill="green" height="10" width="10" x="478.8059567243913" y="-296.2752129526266"/>
<rect fill="green" height="10" width="10" x="446.6191923343252" y="-144.29218398444408"/>
<rect fill="green" height="10" width="10" x="482.6494880177012" y="-312.2707815308268"/>
<rect fill="green" height="10" width="10" x="421.04156337425627" y="-276.78083860101617"/>
<rect fill="green" height="10" width="10" x="454.3087199810037" y="-244.14280951414352"/>
<rect fill="green" height="10" width="10" x="306.5868999295797" y="-283.5084640203822"/>
<rect fill="green" height="10" width="10" x="482.7297920356976" y="-330.54407727173054"/>
<rect fill="green" height="10" width="10" x="436.4127051636909" y="-94.33705001058914"/>
<rect fill="green" height="10" width="10" x="370.0387979740306" y="-324.674149825223"/>
<rect fill="green" height="10" width="10" x="262.31891693910796" y="-288.3085194115592"/>
<rect fill="green" height="10" width="10" x="438.561225877727" y="-249.24893153445333"/>
<rect fill="green" height="10" width="10" x="403.1864230881085" y="-227.08193207734448"/>
<rect fill="green" height="10" width="10" x="459.3796767751629" y="-222.5475586219781"/>
<rect fill="green" height="10" width="10" x="404.0546043713483" y="-232.40771791468765"/>
<rect fill="green" height="10" width="10" x="273.4071109745506" y="-311.59300488424356"/>
<rect fill="green" height="10" width="10" x="466.12361053298116" y="-280.3904794051012"/>
<rect fill="green" height="10" width="10" x="465.2468734736125" y="-163.7120550045175"/>
<rect fill="green" height="10" width="10" x="441.39224949925847" y="-330.712323717453"/>
<rect fill="green" height="10" width="10" x="397.0724148647729" y="-200.08440692441164"/>
<rect fill="green" height="10" width="10" x="425.22824506052" y="-257.49118289511847"/>
<rect fill="green" height="10" width="10" x="463.7266338492018" y="-311.84509029423737"/>
<rect fill="green" height="10" width="10" x="373.22971495729377" y="-296.73420443774535"/>
<rect fill="green" height="10" width="10" x="370.95797907833065" y="-301.28389757962736"/>
<rect fill="green" height="10" width="10" x="431.7421921948031" y="-238.2382611932826"/>
<rect fill="green" height="10" width="10" x="343.8173826117904" y="-193.07938835202023"/>
<rect fill="green" height="10" width="10" x="485.4189607056466" y="-50.149765549295765"/>
<rect fill="green" height="10" width="10" x="334.09895955206525" y="-193.9498393218169"/>
<rect fill="green" height="10" width="10" x="326.52857397636467" y="-344.6701457165287"/>
<rect fill="green" height="10" width="10" x="296.6379652737882" y="-219.5586975373579"/>
<rect fill="green" height="10" width="10" x="340.66181418609926" y="-256.5790929133492"/>
<rect fill="green" height="10" width="10" x="314.0523611382828" y="-179.3946335686892"/>
<rect fill="green" height="10" width="10" x="260.604449134598" y="-212.46086624185432"/>
<rect fill="green" height="10" width="10" x="381.26079846718665" y="-341.04940302414695"/>
<rect fill="green" height="10" width="10" x="348.8081258790472" y="-298.85862843005276"/>
<rect fill="green" height="10" width="10" x="409.2045663728778" y="-308.54751576738306"/>
<rect fill="green" height="10" width="10" x="379.8940048465982" y="-125.51649920098757"/>
<rect fill="green" height="10" width="10" x="459.61215761121485" y="-273.2549621015586"/>
<rect fill="green" height="10" width="10" x="253.56133635306503" y="-300.99977499224894"/>
<rect fill="green" height="10" width="10" x="277.26572111630105" y="-238.64265090400295"/>
<rect fill="green" height="10" width="10" x="339.29176016497496" y="-250.872517033129"/>
<rect fill="green" height="10" width="10" x="459.96743963166955" y="-279.7311186041537"/>
<rect fill="green" height="10" width="10" x="319.4653289265212" y="-226.55681469001357"/>
<rect fill="green" height="10" width="10" x="394.61525323919307" y="-334.6505044794302"/>
<rect fill="green" height="10" width="10" x="431.0937335373991" y="-273.8523851253804"/>
<rect fill="green" height="10" width="10" x="336.5020910842117" y="-248.0063924850611"/>
<rect fill="green" height="10" width="10" x="416.5291933092973" y="-233.51462786171948"/>
<rect fill="green" height="10" width="10" x="497.2015357533219" y="-264.81513779988376"/>
<rect fill="green" height="10" width="10" x="309.1523690593093" y="-329.08577797112997"/>
<rect fill="green" height="10" width="10" x="415.8940905870651" y="-316.269957595538"/>
<rect fill="green" height="10" width="10" x="483.68698992909657" y="-334.44490576903456"/>
<rect fill="green" height="10" width="10" x="495.9649986890031" y="-301.1506090839174"/>
<rect fill="green" height="10" width="10" x="452.12641089843146" y="-229.24507495818142"/>
<rect fill="green" height="10" width="10" x="316.3580406519233" y="-313.89031997826567"/>
<rect fill="green" height="10" width="10" x="479.91471797133545" y="-209.72251034337597"/>
<rect fill="green" height="10" width="10" x="484.7923146359274" y="-272.5180810027898"/>
<rect fill="green" height="10" width="10" x="466.37131155323493" y="-332.9056554592505"/>
<rect fill="green" height="10" width="10" x="471.8765073013461" y="-333.08891888406356"/>
<rect fill="green" height="10" width="10" x="418.25254769754383" y="-110.3731279818501"/>
<rect fill="green" height="10" width="10" x="351.86953189176336" y="-193.65769307762997"/>
<rect fill="green" height="10" width="10" x="483.7751203197041" y="-334.34206805794935"/>
</g>
<g>
<rect fill="blue" height="10" width="10" x="28.320211127266333" y="-329.9678593471641"/>
<rect fill="blue" height="10" width="10" x="31.369453801356528" y="-301.64182797937536"/>
<rect fill="blue" height="10" width="10" x="50.18396657481738" y="-301.0618692434221"/>
<rect fill="blue" height="10" width="10" x="44.150093384264366" y="-316.2716056436226"/>
<rect fill="blue" height="10" width="10" x="60.79884150473089" y="-327.4049793337332"/>
<rect fill="blue" height="10" width="10" x="36.647134310067" y="-203.25018121520526"/>
<rect fill="blue" height="10" width="10" x="37.62280837875558" y="-303.4743370540966"/>
<rect fill="blue" height="10" width="10" x="104.53784925962975" y="-293.9334112966953"/>
<rect fill="blue" height="10" width="10" x="77.53126533078998" y="-314.60698662714606"/>
<rect fill="blue" height="10" width="10" x="108.53568577707259" y="-315.7529387926792"/>
<rect fill="blue" height="10" width="10" x="17.89471908715236" y="-264.56972452386515"/>
<rect fill="blue" height="10" width="10" x="47.4890349219428" y="-330.8256038001573"/>
<rect fill="blue" height="10" width="10" x="92.30941765468579" y="-273.51631098467914"/>
<rect fill="blue" height="10" width="10" x="139.44814623720544" y="-275.8723195947566"/>
<rect fill="blue" height="10" width="10" x="84.955176715833" y="-285.19105218660354"/>
<rect fill="blue" height="10" width="10" x="17.94045861231788" y="-291.680934595527"/>
<rect fill="blue" height="10" width="10" x="16.832388475145414" y="-237.0239882264985"/>
<rect fill="blue" height="10" width="10" x="30.32950432749614" y="-302.9339251010444"/>
<rect fill="blue" height="10" width="10" x="71.53169400903741" y="-335.49060915252676"/>
<rect fill="blue" height="10" width="10" x="75.82472355746262" y="-322.10016670658626"/>
<rect fill="blue" height="10" width="10" x="-2.1347310966476307" y="-340.1145800298751"/>
<rect fill="blue" height="10" width="10" x="37.04891497875589" y="-276.6493994353899"/>
<rect fill="blue" height="10" width="10" x="49.62877303033106" y="-275.90506006575595"/>
<rect fill="blue" height="10" width="10" x="95.99669208187728" y="-286.9084133281366"/>
<rect fill="blue" height="10" width="10" x="101.36509965904732" y="-285.37872755697003"/>
<rect fill="blue" height="10" width="10" x="45.30750848824619" y="-298.65919583988665"/>
<rect fill="blue" height="10" width="10" x="106.9210117936245" y="-292.0628953924116"/>
<rect fill="blue" height="10" width="10" x="49.44356315188386" y="-267.8258341120886"/>
<rect fill="blue" height="10" width="10" x="111.50716395135305" y="-335.6843644134075"/>
<rect fill="blue" height="10" width="10" x="64.67007428660806" y="-274.459303004091"/>
<rect fill="blue" height="10" width="10" x="87.87327925867842" y="-287.52180809049645"/>
<rect fill="blue" height="10" width="10" x="78.7059045319106" y="-275.3579155308169"/>
<rect fill="blue" height="10" width="10" x="13.392367785469414" y="-284.231644420478"/>
<rect fill="blue" height="10" width="10" x="110.65908620672937" y="-340.7395862869698"/>
<rect fill="blue" height="10" width="10" x="14.790755244144645" y="-311.3003999484509"/>
<rect fill="blue" height="10" width="10" x="37.75461653603781" y="-342.8545159871867"/>
<rect fill="blue" height="10" width="10" x="11.691055614758753" y="-277.0330714443863"/>
<rect fill="blue" height="10" width="10" x="114.24511227653394" y="-338.1321495459084"/>
<rect fill="blue" height="10" width="10" x="82.82682478182855" y="-339.61345058029053"/>
<rect fill="blue" height="10" width="10" x="-0.2120304541546565" y="-284.17823757967034"/>
<rect fill="blue" height="10" width="10" x="-2.912869773707836" y="-293.0871152755784"/>
<rect fill="blue" height="10" width="10" x="53.84622768030151" y="-298.09261747247234"/>
<rect fill="blue" height="10" width="10" x="93.73275744663798" y="-289.3187249897284"/>
<rect fill="blue" height="10" width="10" x="67.21403397332101" y="-320.35258305683476"/>
<rect fill="blue" height="10" width="10" x="116.57482456346324" y="-340.33630101727"/>
<rect fill="blue" height="10" width="10" x="112.00205543560507" y="-281.6300686751268"/>
<rect fill="blue" height="10" width="10" x="108.42880308228021" y="-296.2068069522705"/>
<rect fill="blue" height="10" width="10" x="37.097697045150596" y="-269.2653176064366"/>
<rect fill="blue" height="10" width="10" x="43.26769813421178" y="-269.6707935446119"/>
<rect fill="blue" height="10" width="10" x="36.16546153435481" y="-300.8874202880706"/>
<rect fill="blue" height="10" width="10" x="51.88927570460362" y="-341.9697452906879"/>
<rect fill="blue" height="10" width="10" x="83.85611231274422" y="-327.624296350538"/>
<rect fill="blue" height="10" width="10" x="65.64064635278122" y="-310.3312244661302"/>
<rect fill="blue" height="10" width="10" x="39.99798130235407" y="-327.2700191072945"/>
<rect fill="blue" height="10" width="10" x="107.62085299653708" y="-316.26950684404585"/>
<rect fill="blue" height="10" width="10" x="118.75873489345233" y="-330.6548386228805"/>
<rect fill="blue" height="10" width="10" x="102.4912319512667" y="-342.5225131934184"/>
<rect fill="blue" height="10" width="10" x="118.57474369751579" y="-266.1526441435868"/>
<rect fill="blue" height="10" width="10" x="113.55634644963907" y="-312.2967158554376"/>
<rect fill="blue" height="10" width="10" x="149.68781542115497" y="-204.96724522650277"/>
<rect fill="blue" height="10" width="10" x="90.67357380768271" y="-262.7047034787834"/>
<rect fill="blue" height="10" width="10" x="165.53656319220966" y="-227.7202538275736"/>
<rect fill="blue" height="10" width="10" x="76.5827993168852" y="-300.72622206976155"/>
<rect fill="blue" height="10" width="10" x="76.5678086607422" y="-338.4321312320541"/>
<rect fill="blue" height="10" width="10" x="14.116328497650777" y="-327.2485823599581"/>
<rect fill="blue" height="10" width="10" x="4.596773551752145" y="-308.99840104988505"/>
<rect fill="blue" height="10" width="10" x="101.84706160392561" y="-301.7314279943508"/>
<rect fill="blue" height="10" width="10" x="-3.008563864080556" y="-292.62780215663054"/>
<rect fill="blue" height="10" width="10" x="5.246864890152354" y="-265.2660008848359"/>
<rect fill="blue" height="10" width="10" x="69.50649947497848" y="-272.75185880651696"/>
<rect fill="blue" height="10" width="10" x="12.307480758579956" y="-309.8830405723463"/>
<rect fill="blue" height="10" width="10" x="86.53002611596197" y="-280.7543741064132"/>
<rect fill="blue" height="10" width="10" x="50.66793863809805" y="-317.0099251644461"/>
<rect fill="blue" height="10" width="10" x="19.926496566682708" y="-292.1403602203036"/>
<rect fill="blue" height="10" width="10" x="41.62659655830239" y="-295.5041101259245"/>
<rect fill="blue" height="10" width="10" x="64.78002155641833" y="-281.4109929567979"/>
<rect fill="blue" height="10" width="10" x="70.77238160748473" y="-319.2948844628128"/>
<rect fill="blue" height="10" width="10" x="95.50537593177462" y="-324.59711566351234"/>
<rect fill="blue" height="10" width="10" x="112.50460441986077" y="-332.22450869493355"/>
<rect fill="blue" height="10" width="10" x="206.6292815362114" y="-271.54233150367105"/>
<rect fill="blue" height="10" width="10" x="19.603938641471014" y="-291.40228842722786"/>
<rect fill="blue" height="10" width="10" x="94.35301762663666" y="-260.1640607054821"/>
<rect fill="blue" height="10" width="10" x="114.4590289622168" y="-273.5270907720606"/>
<rect fill="blue" height="10" width="10" x="39.78068026538461" y="-312.4685572002656"/>
<rect fill="blue" height="10" width="10" x="30.657974635173282" y="-286.09029155030305"/>
<rect fill="blue" height="10" width="10" x="-1.2114130600972892" y="-332.6482746521543"/>
<rect fill="blue" height="10" width="10" x="23.143801866177615" y="-248.18085104711957"/>
<rect fill="blue" height="10" width="10" x="103.94088936490607" y="-302.4202398040362"/>
<rect fill="blue" height="10" width="10" x="199.7371495781178" y="-223.11700012992287"/>
<rect fill="blue" height="10" width="10" x="81.65702074899554" y="-265.1401390041075"/>
<rect fill="blue" height="10" width="10" x="38.23039624684539" y="-299.1079249112639"/>
<rect fill="blue" height="10" width="10" x="113.84515467410947" y="-300.49355291021686"/>
<rect fill="blue" height="10" width="10" x="47.64886616528431" y="-334.0050918862569"/>
<rect fill="blue" height="10" width="10" x="18.259436756194784" y="-273.1332370300184"/>
<rect fill="blue" height="10" width="10" x="91.93292811716354" y="-317.2600882359899"/>
<rect fill="blue" height="10" width="10" x="40.1011611951824" y="-270.13843956099015"/>
<rect fill="blue" height="10" width="10" x="117.32389255148544" y="-305.8536082574511"/>
<rect fill="blue" height="10" width="10" x="-1.4101891120202765" y="-331.255808357531"/>
<rect fill="blue" height="10" width="10" x="21.53652302427858" y="-320.4781839427406"/>
<rect fill="blue" height="10" width="10" x="17.04573208849893" y="-297.7695064968766"/>
<rect fill="blue" height="10" width="10" x="104.15018298496133" y="-279.3637768677947"/>
<rect fill="blue" height="10" width="10" x="40.06288062101824" y="-323.42074476848126"/>
<rect fill="blue" height="10" width="10" x="41.961838393990966" y="-284.34491070668645"/>
<rect fill="blue" height="10" width="10" x="29.462513161012808" y="-337.92271847546425"/>
<rect fill="blue" height="10" width="10" x="3.7253100075372885" y="-337.1886893122945"/>
<rect fill="blue" height="10" width="10" x="84.1226265356" y="-314.2269050642216"/>
<rect fill="blue" height="10" width="10" x="78.30582635981735" y="-297.0856490819618"/>
<rect fill="blue" height="10" width="10" x="40.60058614889202" y="-288.22866914088456"/>
<rect fill="blue" height="10" width="10" x="93.08743744120491" y="-322.7618845107116"/>
<rect fill="blue" height="10" width="10" x="114.77221657105386" y="-295.63096471933295"/>
<rect fill="blue" height="10" width="10" x="97.89481748888163" y="-288.02429809527916"/>
<rect fill="blue" height="10" width="10" x="15.190681456836554" y="-271.1981351682657"/>
<rect fill="blue" height="10" width="10" x="39.65219072819008" y="-306.61059813841035"/>
<rect fill="blue" height="10" width="10" x="119.58465042504004" y="-300.55680250986444"/>
</g>
<g>
<rect fill="red" height="10" width="10" x="51.15679820175917" y="-64.20101281167894"/>
<rect fill="red" height="10" width="10" x="239.53166089204555" y="-58.980609335518444"/>
<rect fill="red" height="10" width="10" x="248.5243819595581" y="-8.622817185260056"/>
<rect fill="red" height="10" width="10" x="2.724592828873985" y="-148.46714650793314"/>
<rect fill="red" height="10" width="10" x="22.91525908651738" y="-134.48123839031467"/>
<rect fill="red" height="10" width="10" x="65.91374192602811" y="-89.80106486381489"/>
<rect fill="red" height="10" width="10" x="49.51258689794215" y="-144.10737041807926"/>
<rect fill="red" height="10" width="10" x="34.165231668039254" y="-43.46060656384435"/>
<rect fill="red" height="10" width="10" x="379.1299031449826" y="-59.948500419838695"/>
<rect fill="red" height="10" width="10" x="171.08069395994687" y="-93.55594981433383"/>
<rect fill="red" height="10" width="10" x="183.44191991049848" y="-154.61693744740637"/>
<rect fill="red" height="10" width="10" x="-2.723850983888627" y="-14.847753566158069"/>
<rect fill="red" height="10" width="10" x="59.15676334209856" y="-137.3275505490166"/>
<rect fill="red" height="10" width="10" x="20.726697933335636" y="-45.2409265335808"/>
<rect fill="red" height="10" width="10" x="149.27943505546057" y="-137.81255103724874"/>
<rect fill="red" height="10" width="10" x="340.8508666858451" y="-99.49298237184358"/>
<rect fill="red" height="10" width="10" x="8.448862444406974" y="-86.75962803620862"/>
<rect fill="red" height="10" width="10" x="245.64196666047957" y="-41.06415919786839"/>
<rect fill="red" height="10" width="10" x="87.31655659308237" y="-38.46799070541037"/>
<rect fill="red" height="10" width="10" x="245.7528002776574" y="-170.53537145539175"/>
<rect fill="red" height="10" width="10" x="80.62462618801706" y="-105.04657518692088"/>
<rect fill="red" height="10" width="10" x="162.117469017807" y="-30.50789770060623"/>
<rect fill="red" height="10" width="10" x="155.13693468068172" y="-125.33188057271798"/>
<rect fill="red" height="10" width="10" x="155.10488881571476" y="-11.831649238252549"/>
<rect fill="red" height="10" width="10" x="66.92561332192909" y="-121.54713187782491"/>
<rect fill="red" height="10" width="10" x="151.271844395257" y="-144.73349159492514"/>
<rect fill="red" height="10" width="10" x="144.46267971269307" y="-45.35293252907182"/>
<rect fill="red" height="10" width="10" x="20.3286064913246" y="-119.10971730501424"/>
<rect fill="red" height="10" width="10" x="79.9105405736037" y="-51.13655719007743"/>
<rect fill="red" height="10" width="10" x="348.028989286216" y="-75.64034221806723"/>
<rect fill="red" height="10" width="10" x="224.98993340717226" y="-155.57010503153074"/>
<rect fill="red" height="10" width="10" x="65.79116077355414" y="-182.5511983777025"/>
<rect fill="red" height="10" width="10" x="182.70419742417116" y="-114.86524069261695"/>
<rect fill="red" height="10" width="10" x="60.204375584397866" y="-109.99498300272835"/>
<rect fill="red" height="10" width="10" x="161.8895967190409" y="-148.05787878373013"/>
<rect fill="red" height="10" width="10" x="248.92072677278665" y="-131.19574856913687"/>
<rect fill="red" height="10" width="10" x="239.7391414129786" y="-27.061231164620658"/>
<rect fill="red" height="10" width="10" x="15.322611832028237" y="-149.55983436031664"/>
<rect fill="red" height="10" width="10" x="109.53909165443133" y="-15.599374368710626"/>
<rect fill="red" height="10" width="10" x="83.40312578397383" y="-144.90377845937357"/>
<rect fill="red" height="10" width="10" x="139.7768331490431" y="-132.6596522040591"/>
<rect fill="red" height="10" width="10" x="154.91826855899052" y="-91.95159312514004"/>
<rect fill="red" height="10" width="10" x="136.62365766071537" y="-98.46202189278468"/>
<rect fill="red" height="10" width="10" x="143.5591833601187" y="-46.0686920566771"/>
<rect fill="red" height="10" width="10" x="20.955259959513352" y="-17.58274109729333"/>
<rect fill="red" height="10" width="10" x="348.03043487108596" y="-44.71632694639391"/>
<rect fill="red" height="10" width="10" x="54.58591673054231" y="-115.03566961294541"/>
<rect fill="red" height="10" width="10" x="13.80028715282915" y="-138.8432309410099"/>
<rect fill="red" height="10" width="10" x="32.565308096179294" y="-73.9492745229571"/>
<rect fill="red" height="10" width="10" x="271.92937028628387" y="-52.821319560986595"/>
<rect fill="red" height="10" width="10" x="185.74095122751396" y="-67.07850221230643"/>
<rect fill="red" height="10" width="10" x="15.132049149688672" y="-54.41327259574068"/>
<rect fill="red" height="10" width="10" x="1.7243030506205432" y="-21.87791626689312"/>
<rect fill="red" height="10" width="10" x="10.219369490679018" y="-20.33269283051603"/>
<rect fill="red" height="10" width="10" x="248.90398766617665" y="-121.45543323689328"/>
<rect fill="red" height="10" width="10" x="369.8205839798851" y="-61.69829509276824"/>
<rect fill="red" height="10" width="10" x="238.01951013360986" y="-52.06660437463675"/>
<rect fill="red" height="10" width="10" x="173.67189941336179" y="-92.18204328199623"/>
<rect fill="red" height="10" width="10" x="173.8281280189463" y="-131.33619747762074"/>
<rect fill="red" height="10" width="10" x="83.36154513300919" y="-135.95581897189166"/>
<rect fill="red" height="10" width="10" x="37.7121860589022" y="-159.16923550945265"/>
<rect fill="red" height="10" width="10" x="165.11881654575467" y="-6.080169611678514"/>
<rect fill="red" height="10" width="10" x="51.39019737083547" y="-43.521314920054905"/>
<rect fill="red" height="10" width="10" x="69.75648820339502" y="-160.22917722651016"/>
<rect fill="red" height="10" width="10" x="239.6201225714214" y="-59.04280266331449"/>
<rect fill="red" height="10" width="10" x="350.3294368114571" y="-21.761194331262555"/>
<rect fill="red" height="10" width="10" x="10.531811000459172" y="-32.233952667919894"/>
<rect fill="red" height="10" width="10" x="288.24904950940663" y="-127.38791421570662"/>
<rect fill="red" height="10" width="10" x="240.6420335745234" y="-59.823264561266186"/>
<rect fill="red" height="10" width="10" x="104.27499251872749" y="-137.43471149671012"/>
<rect fill="red" height="10" width="10" x="-4.930566523375611" y="-52.98458113511978"/>
<rect fill="red" height="10" width="10" x="239.16411887076157" y="-42.40620971829716"/>
<rect fill="red" height="10" width="10" x="133.38436180789887" y="-133.4502422159556"/>
<rect fill="red" height="10" width="10" x="207.75921671526754" y="-12.015946367943537"/>
<rect fill="red" height="10" width="10" x="236.567747413684" y="-172.84975936978213"/>
<rect fill="red" height="10" width="10" x="192.94659080929324" y="-37.202218661679446"/>
<rect fill="red" height="10" width="10" x="235.94532416571187" y="-104.32774859068537"/>
<rect fill="red" height="10" width="10" x="344.19434334324126" y="-21.79464556934775"/>
<rect fill="red" height="10" width="10" x="61.158161331911515" y="-139.74459842793095"/>
<rect fill="red" height="10" width="10" x="46.86397167706085" y="-127.6187884548538"/>
<rect fill="red" height="10" width="10" x="43.589365189177904" y="-166.3603784168975"/>
<rect fill="red" height="10" width="10" x="161.89952718826123" y="-142.98864940739242"/>
<rect fill="red" height="10" width="10" x="-4.255046574129407" y="-78.32831330182574"/>
<rect fill="red" height="10" width="10" x="-4.7137474142361775" y="-118.2935701227082"/>
<rect fill="red" height="10" width="10" x="50.574902607202944" y="-24.827068086123656"/>
<rect fill="red" height="10" width="10" x="173.02126111136405" y="-12.729827825946128"/>
<rect fill="red" height="10" width="10" x="207.12544217077735" y="-156.5470606912464"/>
<rect fill="red" height="10" width="10" x="478.0779273746819" y="-20.33985546239257"/>
<rect fill="red" height="10" width="10" x="49.22614350042001" y="-110.68912236557176"/>
<rect fill="red" height="10" width="10" x="152.79561956049164" y="-154.66771846767966"/>
<rect fill="red" height="10" width="10" x="145.84102721495088" y="-15.906975887253681"/>
<rect fill="red" height="10" width="10" x="160.13059350427525" y="-92.16821014017482"/>
<rect fill="red" height="10" width="10" x="15.00989929755054" y="-59.33548256804719"/>
<rect fill="red" height="10" width="10" x="59.188561267763845" y="-74.3383905949201"/>
<rect fill="red" height="10" width="10" x="152.35384618657986" y="-92.05193737345874"/>
<rect fill="red" height="10" width="10" x="73.4760477895388" y="-128.84806404713495"/>
<rect fill="red" height="10" width="10" x="235.62782398329915" y="-36.939157524217265"/>
<rect fill="red" height="10" width="10" x="23.234314606253594" y="-162.41295321398098"/>
<rect fill="red" height="10" width="10" x="173.19883921018712" y="-24.659389717395104"/>
<rect fill="red" height="10" width="10" x="137.01474829999873" y="-34.27873992767565"/>
<rect fill="red" height="10" width="10" x="23.030977259862443" y="-124.49694420916846"/>
<rect fill="red" height="10" width="10" x="167.7484875247638" y="-143.42152646218491"/>
<rect fill="red" height="10" width="10" x="61.63675309765674" y="-74.51369421439077"/>
<rect fill="red" height="10" width="10" x="201.88385688090688" y="-165.90687124801812"/>
<rect fill="red" height="10" width="10" x="97.01432903662591" y="-49.67501522698376"/>
<rect fill="red" height="10" width="10" x="243.23672801820422" y="-70.23891676554744"/>
<rect fill="red" height="10" width="10" x="146.89339460453033" y="-23.77938601634035"/>
<rect fill="red" height="10" width="10" x="187.56610390242184" y="-62.46504696008996"/>
<rect fill="red" height="10" width="10" x="151.3189142770085" y="-109.7100647121177"/>
<rect fill="red" height="10" width="10" x="295.6804052790962" y="-37.978050903500794"/>
<rect fill="red" height="10" width="10" x="137.34468337781556" y="-33.33107403499083"/>
<rect fill="red" height="10" width="10" x="292.7153520312281" y="-39.538694654764896"/>
<rect fill="red" height="10" width="10" x="204.6881613377168" y="-49.427646451239575"/>
<rect fill="red" height="10" width="10" x="42.571885547597056" y="-46.425037745991546"/>
<rect fill="red" height="10" width="10" x="243.12115730366935" y="-64.62696632153875"/>
<rect fill="red" height="10" width="10" x="64.9407181491216" y="-174.5051470502952"/>
<rect fill="red" height="10" width="10" x="36.83894649062868" y="-171.64246058338546"/>
<rect fill="red" height="10" width="10" x="12.235824177928926" y="-49.55363061529442"/>
<rect fill="red" height="10" width="10" x="124.96558893418779" y="-108.47818199478948"/>
<rect fill="red" height="10" width="10" x="168.68594613195162" y="-123.64743033161251"/>
<rect fill="red" height="10" width="10" x="110.57509390271596" y="-121.2547346044178"/>
<rect fill="red" height="10" width="10" x="145.47492234951048" y="-116.08972654574157"/>
<rect fill="red" height="10" width="10" x="237.0291244155265" y="-144.76635761662"/>
<rect fill="red" height="10" width="10" x="236.24019823764547" y="-98.40733417074773"/>
<rect fill="red" height="10" width="10" x="181.23213823974126" y="-73.46064913317475"/>
<rect fill="red" height="10" width="10" x="110.1404820635803" y="-83.92369674984157"/>
<rect fill="red" height="10" width="10" x="321.69083590172806" y="-62.4320557650453"/>
<rect fill="red" height="10" width="10" x="205.53865570856618" y="-81.90248851618017"/>
<rect fill="red" height="10" width="10" x="100.96508097930246" y="-116.57035230447954"/>
<rect fill="red" height="10" width="10" x="8.035851630221178" y="-118.97299417287543"/>
<rect fill="red" height="10" width="10" x="94.3236719357694" y="-36.33811917633922"/>
<rect fill="red" height="10" width="10" x="64.87466614088841" y="-150.27518939702577"/>
<rect fill="red" height="10" width="10" x="47.47119906670135" y="-102.05532449330691"/>
<rect fill="red" height="10" width="10" x="173.14871185042222" y="-201.93121743304542"/>
<rect fill="red" height="10" width="10" x="133.81846223341256" y="-55.79930307272835"/>
<rect fill="red" height="10" width="10" x="204.50916368452013" y="-166.3368336742985"/>
<rect fill="red" height="10" width="10" x="24.414884364841264" y="-40.33682626940748"/>
<rect fill="red" height="10" width="10" x="-3.0691327931970926" y="-32.3730360475629"/>
<rect fill="red" height="10" width="10" x="121.06748843172402" y="-44.834657844123164"/>
<rect fill="red" height="10" width="10" x="165.53959225667427" y="-139.09300327783438"/>
<rect fill="red" height="10" width="10" x="245.50957609736105" y="-101.69522554923056"/>
<rect fill="red" height="10" width="10" x="285.53074042192134" y="-146.48635623199766"/>
<rect fill="red" height="10" width="10" x="97.79084050090907" y="-50.90333748436419"/>
<rect fill="red" height="10" width="10" x="83.34850582288901" y="-140.22495854277093"/>
<rect fill="red" height="10" width="10" x="176.61768458296797" y="-9.04308720618988"/>
<rect fill="red" height="10" width="10" x="175.12938328929064" y="-144.5725154130687"/>
<rect fill="red" height="10" width="10" x="56.48724941612269" y="-17.573713112475946"/>
<rect fill="red" height="10" width="10" x="29.749792939792314" y="-145.84249442198728"/>
<rect fill="red" height="10" width="10" x="349.06950924031065" y="-43.52840072463742"/>
<rect fill="red" height="10" width="10" x="15.968236151203914" y="-127.28970161643997"/>
<rect fill="red" height="10" width="10" x="255.15267194311429" y="-69.26469562912112"/>
</g>
<g>
<circle cx="389.5282697532474" cy="-251.51063070189645" fill="green" r="5"/>
</g>
<g>
<circle cx="70.6083307617459" cy="-293.1918920241242" fill="blue" r="5"/>
</g>
<g>
<circle cx="145.8391977724575" cy="-83.85169885624535" fill="red" r="5"/>
</g>
<g>
<g>
<line stroke="black" stroke-width="1" x1="51" x2="51" y1="0" y2="10"/>
<line stroke="black" stroke-width="1" x1="153" x2="153" y1="0" y2="10"/>
<line stroke="black" stroke-width="1" x1="255" x2="255" y1="0" y2="10"/>
<line stroke="black" stroke-width="1" x1="357" x2="357" y1="0" y2="10"/>
<line stroke="black" stroke-width="1" x1="459" x2="459" y1="0" y2="10"/>
</g>
<line stroke="black" stroke-width="1" x1="0" x2="510" y1="0" y2="0"/>
<g>
<text font-size="12" text-anchor="middle" x="51" y="20">
-4
</text>
<text font-size="12" text-anchor="middle" x="153" y="20">
-2
</text>
<text font-size="12" text-anchor="middle" x="255" y="20">
0
</text>
<text font-size="12" text-anchor="middle" x="357" y="20">
2
</text>
<text font-size="12" text-anchor="middle" x="459" y="20">
4
</text>
</g>
<text font-size="12" text-anchor="middle" x="255" y="30">
x-axis
</text>
</g>
<g>
<g>
<line stroke="black" stroke-width="1" x1="0" x2="-10" y1="-34" y2="-34"/>
<line stroke="black" stroke-width="1" x1="0" x2="-10" y1="-102" y2="-102"/>
<line stroke="black" stroke-width="1" x1="0" x2="-10" y1="-170" y2="-170"/>
<line stroke="black" stroke-width="1" x1="0" x2="-10" y1="-238" y2="-238"/>
<line stroke="black" stroke-width="1" x1="0" x2="-10" y1="-306" y2="-306"/>
</g>
<line stroke="black" stroke-width="1" x1="0" x2="0" y1="0" y2="-340"/>
<g>
<text dominant-baseline="middle" font-size="12" text-anchor="end" x="-15" y="-34">
-4
</text>
<text dominant-baseline="middle" font-size="12" text-anchor="end" x="-15" y="-102">
-2
</text>
<text dominant-baseline="middle" font-size="12" text-anchor="end" x="-15" y="-170">
0
</text>
<text dominant-baseline="middle" font-size="12" text-anchor="end" x="-15" y="-238">
2
</text>
<text dominant-baseline="middle" font-size="12" text-anchor="end" x="-15" y="-306">
4
</text>
</g>
<text font-size="12" text-anchor="middle" transform="rotate(-90 -30 -170)" x="-30" y="-182">
y-axis
</text>
</g>
</g>
</svg>