<svg viewBox="0 0 600 400" xmlns="http://www.w3.org/2000/svg">
<g transform="translate(54, 364)">
<g>
<rect fill="green" height="10" width="10" x="471.000768563829" y="-186.73929722276958"/>
<rect fill="green" height="10" width="10" x="444.8255188539707" y="-275.6865032332701"/>
<rect fill="green" height="10" width="10" x="410.68396717201523" y="-202.61772889155992"/>
<rect fill="green" height="10" width="10" x="451.750089247351" y="-181.31141117606808"/>
<rect fill="green" height="10" width="10" x="281.6792914010491" y="-170.37121238280224"/>
<rect fill="green" height="10" width="10" x="463.7168544306645" y="-178.02203015749038"/>
<rect fill="green" height="10" width="10" x="460.12686215488077" y="-193.18336806097568"/>
<rect fill="green" height="10" width="10" x="428.5229186612558" y="-73.48878475612199"/>
<rect fill="green" height="10" width="10" x="359.2605148150145" y="-239.26405214207853"/>
<rect fill="green" height="10" width="10" x="316.4112642883102" y="-257.73899748983627"/>
<rect fill="green" height="10" width="10" x="353.0437951914151" y="-271.44223672539533"/>
<rect fill="green" height="10" width="10" x="445.895482111587" y="-288.61317686161954"/>
<rect fill="green" height="10" width="10" x="274.68043259428487" y="-271.6690997534639"/>
<rect fill="green" height="10" width="10" x="355.84753611489157" y="-189.4561906678942"/>
<rect fill="green" height="10" width="10" x="455.1802824633789" y="-331.20725161586773"/>
<rect fill="green" height="10" width="10" x="476.1258192159353" y="-325.59902005796823"/>
<rect fill="green" height="10" width="10" x="297.018618868923" y="-283.0122665729256"/>
<rect fill="green" height="10" width="10" x="315.54879666896284" y="-225.68386818564295"/>
<rect fill="green" height="10" width="10" x="261.62422886433444" y="-298.6141804458513"/>
<rect fill="green" height="10" width="10" x="313.6948597964497" y="-331.67012665710894"/>
<rect fill="green" height="10" width="10" x="275.94581113605574" y="-307.0249031570563"/>
<rect fill="green" height="10" width="10" x="298.87370619668275" y="-156.43399331447148"/>
<rect fill="green" height="10" width="10" x="388.9170853422082" y="-193.0434862257241"/>
<rect fill="green" height="10" width="10" x="363.6620550418991" y="-341.1746779919611"/>
<rect fill="green" height="10" width="10" x="433.3425044171703" y="-114.18414426951253"/>
<rect fill="green" height="10" width="10" x="460.1952762105119" y="-275.1751008438075"/>
<rect fill="green" height="10" width="10" x="394.86552444668473" y="-316.7670258439021"/>
<rect fill="green" height="10" width="10" x="259.6788968239462" y="-185.41540241299685"/>
<rect fill="green" height="10" width="10" x="452.57883793654463" y="-251.55749061801467"/>
<rect fill="green" height="10" width="10" x="372.0253218358373" y="-206.05390665645993"/>
<rect fill="green" height="10" width="10" x="429.0556813818372" y="-324.3237776937528"/>
<rect fill="green" height="10" width="10" x="489.6532768332844" y="-263.53340489218664"/>
<rect fill="green" height="10" width="10" x="443.58830830313156" y="-241.40691514333648"/>
<rect fill="green" height="10" width="10" x="482.6948042191324" y="-311.2716540176267"/>
<rect fill="green" height="10" width="10" x="464.54732632950345" y="-261.885862245343"/>
<rect fill="green" height="10" width="10" x="419.37475413734654" y="-262.17974780110706"/>
<rect fill="green" height="10" width="10" x="466.21321271220916" y="-283.7176816831962"/>
<rect fill="green" height="10" width="10" x="329.83315273674026" y="-292.1853546450592"/>
<rect fill="green" height="10" width="10" x="374.816303799117" y="-184.5307119003965"/>
<rect fill="green" height="10" width="10" x="320.60785625142205" y="-228.723752619797"/>
<rect fill="green" height="10" width="10" x="282.74024987769866" y="-186.95110882717785"/>
<rect fill="green" height="10" width="10" x="364.9465474946703" y="-268.13856205962526"/>
<rect fill="green" height="10" width="10" x="396.74683066335984" y="-103.85914998572778"/>
<rect fill="green" height="10" width="10" x="433.5875056975821" y="-181.95574645573396"/>
<rect fill="green" height="10" width="10" x="279.3740361798066" y="-193.7908354913059"/>
<rect fill="green" height="10" width="10" x="404.96631419705346" y="-185.36732069302508"/>
<rect fill="green" height="10" width="10" x="414.6269849910349" y="-268.0224474965025"/>
<rect fill="green" height="10" width="10" x="487.3900317158253" y="-266.7057330157638"/>
<rect fill="green" height="10" width="10" x="366.48343938048276" y="-175.46123431535014"/>
<rect fill="green" height="10" width="10" x="255.9912911923294" y="-209.90531022287968"/>
<rect fill="green" height="10" width="10" x="492.7706831393542" y="-313.32169596153335"/>
<rect fill="green" height="10" width="10" x="211.00469620154067" y="-248.04614652143613"/>
<rect fill="green" height="10" width="10" x="332.9516051301515" y="-244.58102478273673"/>
<rect fill="green" height="10" width="10" x="254.0369529382795" y="-215.0983500756864"/>
<rect fill="green" height="10" width="10" x="408.1599277425747" y="-294.3768881380734"/>
<rect fill="green" height="10" width="10" x="222.17949389888946" y="-193.66818317284677"/>
<rect fill="green" height="10" width="10" x="435.01094012451784" y="-315.0371109600529"/>
<rect fill="green" height="10" width="10" x="428.18064351975363" y="-216.7087069466962"/>
<rect fill="green" height="10" width="10" x="219.31961276162957" y="-272.54441100466653"/>
<rect fill="green" height="10" width="10" x="488.43958738069523" y="-199.26536748842432"/>
<rect fill="green" height="10" width="10" x="230.91055532768615" y="-289.4338803537538"/>
<rect fill="green" height="10" width="10" x="258.35893342266723" y="-327.56620373673866"/>
<rect fill="green" height="10" width="10" x="460.47397832878085" y="-156.3868542578468"/>
<rect fill="green" height="10" width="10" x="351.72067787557796" y="-293.94553769647575"/>
<rect fill="green" height="10" width="10" x="306.08097719667614" y="-201.35816109703651"/>
<rect fill="green" height="10" width="10" x="382.70474284635077" y="-270.5640944281902"/>
<rect fill="green" height="10" width="10" x="432.88776466554737" y="-217.1089912754972"/>
<rect fill="green" height="10" width="10" x="481.95977589440463" y="-272.53564739056657"/>
<rect fill="green" height="10" width="10" x="446.9214669877059" y="-192.26016816715935"/>
<rect fill="green" height="10" width="10" x="331.35939876512214" y="-258.0044076558759"/>
<rect fill="green" height="10" width="10" x="343.71617888389113" y="-212.72512300763395"/>
<rect fill="green" height="10" width="10" x="229.13675943319896" y="-262.03660462122446"/>
<rect fill="green" height="10" width="10" x="374.98833283595263" y="-320.21077054776475"/>
<rect fill="green" height="10" width="10" x="330.7052896063109" y="-284.6666656421463"/>
<rect fill="green" height="10" width="10" x="332.8595393761153" y="-235.98518780758732"/>
<rect fill="green" height="10" width="10" x="428.7967573505788" y="-330.3321340816199"/>
<rect fill="green" height="10" width="10" x="299.85963869489007" y="-315.1699471954306"/>
<rect fill="green" height="10" width="10" x="268.6796568977172" y="-310.2011021429025"/>
<rect fill="green" height="10" width="10" x="255.15735967223475" y="-185.3724833229101"/>
<rect fill="green" height="10" width="10" x="419.5262595479533" y="-224.57562360406956"/>
<rect fill="green" height="10" width="10" x="395.37674877115217" y="-171.7518856036256"/>
<rect fill="green" height="10" width="10" x="334.03567884754045" y="-232.28594920705027"/>
<rect fill="green" height="10" width="10" x="344.1115549130401" y="-239.05444255981183"/>
<rect fill="green" height="10" width="10" x="484.9238302585476" y="-189.71304662413692"/>
<rect fill="green" height="10" width="10" x="274.2331560081696" y="-300.65272421837153"/>
<rect fill="green" height="10" width="10" x="273.7068394400982" y="-286.04652339475774"/>
<rect fill="green" height="10" width="10" x="495.16396114512565" y="-44.19017918299231"/>
<rect fill="green" height="10" width="10" x="454.21641073210685" y="-327.72813591206983"/>
<rect fill="green" height="10" width="10" x="275.2381247587054" y="-204.14610504920424"/>
<rect fill="green" height="10" width="10" x="264.326889897822" y="-238.893521801109"/>
<rect fill="green" height="10" width="10" x="485.8286428965265" y="-330.33632818802124"/>
<rect fill="green" height="10" width="10" x="469.48402614192946" y="-216.6027114468462"/>
<rect fill="green" height="10" width="10" x="407.7678022498374" y="-292.72448576206426"/>
<rect fill="green" height="10" width="10" x="338.5826737592337" y="-311.5163076148252"/>
<rect fill="green" height="10" width="10" x="323.0132252046193" y="-232.41597357409174"/>
<rect fill="green" height="10" width="10" x="310.4959247967732" y="-146.93690865638445"/>
<rect fill="green" height="10" width="10" x="308.9042966719992" y="-285.10967324635305"/>
<rect fill="green" height="10" width="10" x="381.02820876246074" y="-323.17806550056673"/>
<rect fill="green" height="10" width="10" x="234.7406910933194" y="-231.30757447528882"/>
<rect fill="green" height="10" width="10" x="424.1763394402783" y="-195.28189139191926"/>
<rect fill="green" height="10" width="10" x="206.64458084029698" y="-247.44172805129082"/>
<rect fill="green" height="10" width="10" x="462.17932050972047" y="-264.4461020980881"/>
<rect fill="green" height="10" width="10" x="329.1650592497233" y="-205.6711604196205"/>
<rect fill="green" height="10" width="10" x="339.3671249515903" y="-271.7505384883334"/>
<rect fill="green" height="10" width="10" x="225.410389339423" y="-275.6135044681849"/>
<rect fill="green" height="10" width="10" x="348.0292547525605" y="-259.72397480977884"/>
<rect fill="green" height="10" width="10" x="331.8303150559748" y="-224.79105944390076"/>
<rect fill="green" height="10" width="10" x="410.57695751043076" y="-240.80020904221436"/>
<rect fill="green" height="10" width="10" x="426.82984597357046" y="-189.77576477628364"/>
<rect fill="green" height="10" width="10" x="341.22611096787296" y="-240.1412899803866"/>
<rect fill="green" height="10" width="10" x="390.01020473862116" y="-224.93495608659038"/>
<rect fill="green" height="10" width="10" x="250.24240408303348" y="-312.4968863729317"/>
<rect fill="green" height="10" width="10" x="253.4168791785188" y="-255.57563441253677"/>
<rect fill="green" height="10" width="10" x="443.68857737076297" y="-108.52272790365711"/>
<rect fill="green" height="10" width="10" x="252.1721963252818" y="-319.30126584330964"/>
<rect fill="green" height="10" width="10" x="308.3084935263766" y="-266.6416874261132"/>
<rect fill="green" height="10" width="10" x="475.684268736349" y="-269.2111925224876"/>
<rect fill="green" height="10" width="10" x="413.5839099889974" y="-307.10962713578056"/>
<rect fill="green" height="10" width="10" x="499.40790568473676" y="-318.0188998853573"/>
<rect fill="green" height="10" width="10" x="377.3021910080689" y="-290.0529409661921"/>
<rect fill="green" height="10" width="10" x="251.046066520929" y="-324.5358234431295"/>
<rect fill="green" height="10" width="10" x="419.9347656278158" y="-251.87579286243786"/>
<rect fill="green" height="10" width="10" x="436.45588916801034" y="-204.9507521184982"/>
<rect fill="green" height="10" width="10" x="434.735511222318" y="-344.2786882930876"/>
<rect fill="green" height="10" width="10" x="338.56551830215636" y="-183.15865546512504"/>
<rect fill="green" height="10" width="10" x="406.0455023450434" y="-243.88081539247665"/>
<rect fill="green" height="10" width="10" x="465.48350287668836" y="-231.49914848429202"/>
<rect fill="green" height="10" width="10" x="280.11742282620315" y="-331.21736684894984"/>
<rect fill="green" height="10" width="10" x="301.3494864327124" y="-241.34061634586504"/>
<rect fill="green" height="10" width="10" x="435.1597594585078" y="-308.21834081354325"/>
<rect fill="green" height="10" width="10" x="434.149678820945" y="-72.28291236253317"/>
<rect fill="green" height="10" width="10" x="293.0810888209354" y="-270.01334880641923"/>
<rect fill="green" height="10" width="10" x="377.5370351013082" y="-344.623620554932"/>
<rect fill="green" height="10" width="10" x="403.47762378173456" y="-210.83291401731293"/>
<rect fill="green" height="10" width="10" x="438.39152392509567" y="-315.78108184095464"/>
<rect fill="green" height="10" width="10" x="286.35910686461193" y="-186.78110749326657"/>
<rect fill="green" height="10" width="10" x="274.30752172021545" y="-210.03263464730722"/>
<rect fill="green" height="10" width="10" x="332.13660704755193" y="-177.69499612312603"/>
<rect fill="green" height="10" width="10" x="457.605764954159" y="-179.87847896705526"/>
<rect fill="green" height="10" width="10" x="264.86311663139566" y="-215.87805400185408"/>
<rect fill="green" height="10" width="10" x="398.8506859788494" y="-323.96381445787904"/>
<rect fill="green" height="10" width="10" x="324.9368811080908" y="-218.81222870265964"/>
<rect fill="green" height="10" width="10" x="437.927544354139" y="-245.5406316820528"/>
</g>
<g>
<rect fill="blue" height="10" width="10" x="59.43448557953124" y="-276.95796763948954"/>
<rect fill="blue" height="10" width="10" x="60.127386137333886" y="-303.2162147467917"/>
<rect fill="blue" height="10" width="10" x="21.12241514646438" y="-264.6997581407121"/>
<rect fill="blue" height="10" width="10" x="111.41560741071359" y="-307.5253119589933"/>
<rect fill="blue" height="10" width="10" x="44.89018066015192" y="-262.26892732192664"/>
<rect fill="blue" height="10" width="10" x="37.33807476451429" y="-267.56383000502694"/>
<rect fill="blue" height="10" width="10" x="73.20812194136413" y="-320.6323418633701"/>
<rect fill="blue" height="10" width="10" x="49.58425481980123" y="-281.2244722728277"/>
<rect fill="blue" height="10" width="10" x="119.93247179109758" y="-232.0658890423346"/>
<rect fill="blue" height="10" width="10" x="41.80462587882297" y="-344.47681399735507"/>
<rect fill="blue" height="10" width="10" x="3.023850747917926" y="-344.8965465594481"/>
<rect fill="blue" height="10" width="10" x="116.9675421802696" y="-294.5340079314425"/>
<rect fill="blue" height="10" width="10" x="96.3497009116677" y="-200.6203953056401"/>
<rect fill="blue" height="10" width="10" x="24.593499883949114" y="-297.44901041047547"/>
<rect fill="blue" height="10" width="10" x="7.995718157894013" y="-274.69946501586503"/>
<rect fill="blue" height="10" width="10" x="77.217800802679" y="-310.63247803310355"/>
<rect fill="blue" height="10" width="10" x="41.687476814337565" y="-334.5383394426282"/>
<rect fill="blue" height="10" width="10" x="73.46585354676048" y="-285.3858931099169"/>
<rect fill="blue" height="10" width="10" x="11.901264756597044" y="-314.91758292579755"/>
<rect fill="blue" height="10" width="10" x="6.722516325099567" y="-338.22169423005596"/>
<rect fill="blue" height="10" width="10" x="12.489348091696975" y="-344.4750640483625"/>
<rect fill="blue" height="10" width="10" x="97.29519253446439" y="-279.26134854122245"/>
<rect fill="blue" height="10" width="10" x="49.50875148483111" y="-303.90015186046276"/>
<rect fill="blue" height="10" width="10" x="66.45441416757085" y="-342.50929981336276"/>
<rect fill="blue" height="10" width="10" x="69.49597710172833" y="-289.95924324912073"/>
<rect fill="blue" height="10" width="10" x="9.377692319282318" y="-296.1963465561017"/>
<rect fill="blue" height="10" width="10" x="121.04819954122112" y="-267.32919870029684"/>
<rect fill="blue" height="10" width="10" x="42.89375404769346" y="-274.89654385918163"/>
<rect fill="blue" height="10" width="10" x="52.001737335362336" y="-292.77143972989825"/>
<rect fill="blue" height="10" width="10" x="30.900806876859818" y="-311.89556807478164"/>
<rect fill="blue" height="10" width="10" x="20.196139416548757" y="-281.4478592286265"/>
<rect fill="blue" height="10" width="10" x="103.05022932830516" y="-310.41322962403973"/>
<rect fill="blue" height="10" width="10" x="71.21795890352104" y="-234.99071080071857"/>
<rect fill="blue" height="10" width="10" x="61.18984865227473" y="-292.3169560249349"/>
<rect fill="blue" height="10" width="10" x="82.39325454152447" y="-288.2191030786752"/>
<rect fill="blue" height="10" width="10" x="100.22836114611357" y="-292.18449944340415"/>
<rect fill="blue" height="10" width="10" x="105.889406508277" y="-339.35378832758147"/>
<rect fill="blue" height="10" width="10" x="101.35734556463925" y="-269.3929389495404"/>
<rect fill="blue" height="10" width="10" x="136.97893980819072" y="-340.1314095106858"/>
<rect fill="blue" height="10" width="10" x="-3.183957028422472" y="-270.668562856435"/>
<rect fill="blue" height="10" width="10" x="117.3917159759209" y="-326.01798407695463"/>
<rect fill="blue" height="10" width="10" x="2.8425843350518436" y="-336.29404992520716"/>
<rect fill="blue" height="10" width="10" x="26.803856364342902" y="-336.46284120042736"/>
<rect fill="blue" height="10" width="10" x="2.5999561149441943" y="-304.3211649807143"/>
<rect fill="blue" height="10" width="10" x="116.20639340529515" y="-313.7540625803804"/>
<rect fill="blue" height="10" width="10" x="69.01589576930687" y="-266.3907153160728"/>
<rect fill="blue" height="10" width="10" x="2.839908577111892" y="-304.2935766024796"/>
<rect fill="blue" height="10" width="10" x="10.506193676722361" y="-299.8523854225388"/>
<rect fill="blue" height="10" width="10" x="71.79254256903812" y="-291.2970298976047"/>
<rect fill="blue" height="10" width="10" x="58.141469731488044" y="-285.64801250102244"/>
<rect fill="blue" height="10" width="10" x="110.43350566282456" y="-333.52224287491657"/>
<rect fill="blue" height="10" width="10" x="27.278854357185644" y="-338.484248927948"/>
<rect fill="blue" height="10" width="10" x="120.29774753697723" y="-273.1335426859428"/>
<rect fill="blue" height="10" width="10" x="28.50428583943487" y="-340.27630827674386"/>
<rect fill="blue" height="10" width="10" x="38.63613930769719" y="-293.9380186021286"/>
<rect fill="blue" height="10" width="10" x="111.71410715693207" y="-271.32544002853336"/>
<rect fill="blue" height="10" width="10" x="62.09063728024148" y="-263.0284756094294"/>
<rect fill="blue" height="10" width="10" x="96.45032144993996" y="-294.50578854406683"/>
<rect fill="blue" height="10" width="10" x="103.23558724275122" y="-320.44386488395287"/>
<rect fill="blue" height="10" width="10" x="-1.7640575091106414" y="-279.8909618376789"/>
<rect fill="blue" height="10" width="10" x="56.991223051648696" y="-332.2282856077737"/>
<rect fill="blue" height="10" width="10" x="45.4033488694116" y="-282.053681668206"/>
<rect fill="blue" height="10" width="10" x="118.81485871229674" y="-327.96291723403766"/>
<rect fill="blue" height="10" width="10" x="109.55693980398878" y="-272.6494276705413"/>
<rect fill="blue" height="10" width="10" x="73.50993979279278" y="-271.8676907077979"/>
<rect fill="blue" height="10" width="10" x="109.01968029911197" y="-331.9094113850783"/>
<rect fill="blue" height="10" width="10" x="63.97040579119741" y="-298.86547125892946"/>
<rect fill="blue" height="10" width="10" x="17.974550650177868" y="-333.6160471312024"/>
<rect fill="blue" height="10" width="10" x="30.072017052593637" y="-271.3724779025805"/>
<rect fill="blue" height="10" width="10" x="69.50881729136829" y="-291.75349073335303"/>
<rect fill="blue" height="10" width="10" x="117.54954555899083" y="-299.62149933368926"/>
<rect fill="blue" height="10" width="10" x="51.48042883506715" y="-297.8564568989533"/>
<rect fill="blue" height="10" width="10" x="-0.4815084413715951" y="-295.7969075995341"/>
<rect fill="blue" height="10" width="10" x="46.06463923913963" y="-194.47982859930983"/>
<rect fill="blue" height="10" width="10" x="81.10276184394345" y="-281.5788194532994"/>
<rect fill="blue" height="10" width="10" x="221.65086385202648" y="-328.58230561987426"/>
<rect fill="blue" height="10" width="10" x="96.64757725153082" y="-296.07075980874464"/>
<rect fill="blue" height="10" width="10" x="118.37687186799697" y="-327.30130337481364"/>
<rect fill="blue" height="10" width="10" x="168.94824764221386" y="-231.04132552228765"/>
<rect fill="blue" height="10" width="10" x="91.25660051932786" y="-319.41487649506297"/>
<rect fill="blue" height="10" width="10" x="63.43657441032555" y="-273.136482318941"/>
<rect fill="blue" height="10" width="10" x="7.349943694263091" y="-292.5610192555032"/>
<rect fill="blue" height="10" width="10" x="54.98026082160502" y="-339.0271622212907"/>
<rect fill="blue" height="10" width="10" x="93.93309309603424" y="-343.45576232488787"/>
<rect fill="blue" height="10" width="10" x="58.412355589809216" y="-341.8548176723716"/>
<rect fill="blue" height="10" width="10" x="102.90096164337453" y="-281.6811610645799"/>
<rect fill="blue" height="10" width="10" x="29.474607667699722" y="-298.59593649011356"/>
<rect fill="blue" height="10" width="10" x="71.95332062257464" y="-309.870805309985"/>
<rect fill="blue" height="10" width="10" x="89.94572082089944" y="-310.93304420040016"/>
<rect fill="blue" height="10" width="10" x="33.872716499824904" y="-267.0812551933062"/>
<rect fill="blue" height="10" width="10" x="114.86086479046246" y="-298.0788402122206"/>
<rect fill="blue" height="10" width="10" x="110.43347283884718" y="-324.0000996665517"/>
<rect fill="blue" height="10" width="10" x="12.320431755033344" y="-329.240950937685"/>
<rect fill="blue" height="10" width="10" x="105.75355242767012" y="-324.7350796438734"/>
<rect fill="blue" height="10" width="10" x="117.79223543337912" y="-274.63159062297666"/>
<rect fill="blue" height="10" width="10" x="79.23627065158544" y="-313.42503786412084"/>
<rect fill="blue" height="10" width="10" x="58.674643371213755" y="-327.3959831812225"/>
<rect fill="blue" height="10" width="10" x="3.567792891843247" y="-312.02417364330734"/>
<rect fill="blue" height="10" width="10" x="100.37664774807543" y="-293.17675322961884"/>
<rect fill="blue" height="10" width="10" x="91.06721617960929" y="-332.6789272510144"/>
<rect fill="blue" height="10" width="10" x="67.55118821120968" y="-328.02670417170583"/>
<rect fill="blue" height="10" width="10" x="18.7492425044701" y="-326.00913309028067"/>
<rect fill="blue" height="10" width="10" x="2.4085016544230893" y="-337.74610031088105"/>
<rect fill="blue" height="10" width="10" x="51.2929209212154" y="-276.402542205728"/>
<rect fill="blue" height="10" width="10" x="19.548261060355102" y="-319.7151023491171"/>
<rect fill="blue" height="10" width="10" x="73.72043619249584" y="-297.22143963536456"/>
<rect fill="blue" height="10" width="10" x="162.87569964330996" y="-339.154243012019"/>
<rect fill="blue" height="10" width="10" x="83.17832709272251" y="-334.4562072934181"/>
<rect fill="blue" height="10" width="10" x="80.49958403698398" y="-268.6844420593307"/>
<rect fill="blue" height="10" width="10" x="154.97341405157488" y="-338.7363755328312"/>
<rect fill="blue" height="10" width="10" x="52.1406746193825" y="-278.1202168580373"/>
<rect fill="blue" height="10" width="10" x="71.33981125936968" y="-321.5804623221377"/>
<rect fill="blue" height="10" width="10" x="38.79742710075236" y="-232.9981899427819"/>
<rect fill="blue" height="10" width="10" x="100.97545295509121" y="-317.3947498576125"/>
<rect fill="blue" height="10" width="10" x="-3.4526783247544515" y="-320.21895368341734"/>
</g>
<g>
<rect fill="red" height="10" width="10" x="43.9173110264659" y="-99.85251853755115"/>
<rect fill="red" height="10" width="10" x="149.59601399043532" y="-64.6504846706966"/>
<rect fill="red" height="10" width="10" x="27.860149125642543" y="-148.3048101732857"/>
<rect fill="red" height="10" width="10" x="246.5901156981387" y="-147.69635763098046"/>
<rect fill="red" height="10" width="10" x="316.8209163115415" y="-90.31814468691321"/>
<rect fill="red" height="10" width="10" x="137.23291245170034" y="-122.20117905668613"/>
<rect fill="red" height="10" width="10" x="57.618466299186665" y="-153.08559200179556"/>
<rect fill="red" height="10" width="10" x="153.64096050762984" y="-185.4024751665944"/>
<rect fill="red" height="10" width="10" x="211.5014480272433" y="-81.7301257223196"/>
<rect fill="red" height="10" width="10" x="181.30499032782325" y="-121.51061721951953"/>
<rect fill="red" height="10" width="10" x="106.60728579255681" y="-68.99717074086692"/>
<rect fill="red" height="10" width="10" x="216.76118497518164" y="-139.3494957119677"/>
<rect fill="red" height="10" width="10" x="178.13010445834362" y="-63.25996912033291"/>
<rect fill="red" height="10" width="10" x="187.2350873045387" y="-119.64749119583101"/>
<rect fill="red" height="10" width="10" x="65.56983949379708" y="-121.22719792877476"/>
<rect fill="red" height="10" width="10" x="250.85443250084296" y="-11.788941344598811"/>
<rect fill="red" height="10" width="10" x="91.18173968977038" y="-36.660143974469285"/>
<rect fill="red" height="10" width="10" x="145.8551307618887" y="-166.23316964343275"/>
<rect fill="red" height="10" width="10" x="66.92225863998502" y="-114.95047360433038"/>
<rect fill="red" height="10" width="10" x="235.77442778451206" y="-166.60402609564412"/>
<rect fill="red" height="10" width="10" x="79.66353693138709" y="-34.97374014455242"/>
<rect fill="red" height="10" width="10" x="375.1931856294001" y="-77.26541477652611"/>
<rect fill="red" height="10" width="10" x="240.6540005713417" y="-68.35160391012161"/>
<rect fill="red" height="10" width="10" x="39.68592406393944" y="-155.11786341973698"/>
<rect fill="red" height="10" width="10" x="235.091086622683" y="-69.03638251619891"/>
<rect fill="red" height="10" width="10" x="4.22896350533161" y="-169.46543562557824"/>
<rect fill="red" height="10" width="10" x="82.37542205073674" y="-58.19172159765757"/>
<rect fill="red" height="10" width="10" x="163.13061241227186" y="-39.45753425123674"/>
<rect fill="red" height="10" width="10" x="163.6787345921732" y="-9.3021897457323"/>
<rect fill="red" height="10" width="10" x="139.45530638777944" y="-148.0362100459209"/>
<rect fill="red" height="10" width="10" x="192.03115996151274" y="-21.97454318050453"/>
<rect fill="red" height="10" width="10" x="254.69329352200117" y="-47.49014569660571"/>
<rect fill="red" height="10" width="10" x="234.0378072847453" y="-109.6380786410884"/>
<rect fill="red" height="10" width="10" x="70.08487296621671" y="-120.23344771023078"/>
<rect fill="red" height="10" width="10" x="34.51376380161075" y="-15.774729633954108"/>
<rect fill="red" height="10" width="10" x="111.1024298934565" y="-36.41283908811285"/>
<rect fill="red" height="10" width="10" x="62.276332475312415" y="-15.426636842821084"/>
<rect fill="red" height="10" width="10" x="191.69546361943554" y="-39.26391803049702"/>
<rect fill="red" height="10" width="10" x="193.3864876232281" y="-147.94403672632856"/>
<rect fill="red" height="10" width="10" x="173.22043104891372" y="-108.81271812023036"/>
<rect fill="red" height="10" width="10" x="99.54018616882692" y="-101.62850574866829"/>
<rect fill="red" height="10" width="10" x="57.11445735116367" y="-104.02852895448723"/>
<rect fill="red" height="10" width="10" x="275.9989900911046" y="-8.301196117192664"/>
<rect fill="red" height="10" width="10" x="249.55626474704928" y="-51.278259757819725"/>
<rect fill="red" height="10" width="10" x="306.7412325898735" y="-11.000014567104987"/>
<rect fill="red" height="10" width="10" x="165.6249470204514" y="-138.356205260193"/>
<rect fill="red" height="10" width="10" x="182.46605995276894" y="-67.70089405274393"/>
<rect fill="red" height="10" width="10" x="129.9947689612901" y="-162.28482222348785"/>
<rect fill="red" height="10" width="10" x="182.32311817431946" y="-169.55796233327186"/>
<rect fill="red" height="10" width="10" x="117.83257627763184" y="-72.97821828646174"/>
<rect fill="red" height="10" width="10" x="47.38710724419261" y="-35.23089042578578"/>
<rect fill="red" height="10" width="10" x="291.89130155016016" y="-142.6792513598222"/>
<rect fill="red" height="10" width="10" x="245.58662693353827" y="-24.928273831312715"/>
<rect fill="red" height="10" width="10" x="14.10662880411617" y="-119.55951448139346"/>
<rect fill="red" height="10" width="10" x="220.1100913079194" y="-10.215984175714961"/>
<rect fill="red" height="10" width="10" x="74.75403267702407" y="-12.61601584259753"/>
<rect fill="red" height="10" width="10" x="98.9910412702113" y="-113.98541490492865"/>
<rect fill="red" height="10" width="10" x="21.458155984728318" y="-58.068630311782236"/>
<rect fill="red" height="10" width="10" x="229.09530553029063" y="-21.273455637413953"/>
<rect fill="red" height="10" width="10" x="245.39100051265459" y="-5.053244534672963"/>
<rect fill="red" height="10" width="10" x="19.48426164474361" y="-23.482656840178787"/>
<rect fill="red" height="10" width="10" x="40.37976365244073" y="-99.26851106741358"/>
<rect fill="red" height="10" width="10" x="1.516632502641583" y="-47.44504394598133"/>
<rect fill="red" height="10" width="10" x="50.29928250967981" y="-136.0356018915829"/>
<rect fill="red" height="10" width="10" x="207.42381722438753" y="-117.20758417355005"/>
<rect fill="red" height="10" width="10" x="154.1516457930122" y="-6.868428377529417"/>
<rect fill="red" height="10" width="10" x="86.7975938543731" y="-94.6647593890473"/>
<rect fill="red" height="10" width="10" x="170.55041798927695" y="-144.9455915969677"/>
<rect fill="red" height="10" width="10" x="83.19572293343336" y="-147.90399373196405"/>
<rect fill="red" height="10" width="10" x="234.3045777320407" y="-47.65336776785876"/>
<rect fill="red" height="10" width="10" x="152.1159125626065" y="-67.90928964860952"/>
<rect fill="red" height="10" width="10" x="215.06961839669393" y="-135.11065802786524"/>
<rect fill="red" height="10" width="10" x="158.9567046561324" y="-34.97183140107413"/>
<rect fill="red" height="10" width="10" x="4.975689033008855" y="-150.11084459000034"/>
<rect fill="red" height="10" width="10" x="472.0245897742473" y="-10.50849485194294"/>
<rect fill="red" height="10" width="10" x="27.696886131664044" y="-59.28147870420513"/>
<rect fill="red" height="10" width="10" x="136.7533576089275" y="-71.90296578874108"/>
<rect fill="red" height="10" width="10" x="34.25148887183026" y="-139.2867180126872"/>
<rect fill="red" height="10" width="10" x="83.56915806256863" y="-137.40740155022294"/>
<rect fill="red" height="10" width="10" x="118.1718304979873" y="-112.13386592540853"/>
<rect fill="red" height="10" width="10" x="214.79656524168726" y="-77.5965920612431"/>
<rect fill="red" height="10" width="10" x="204.48313386544413" y="-75.9076408612216"/>
<rect fill="red" height="10" width="10" x="373.4915592432525" y="-24.08081662541159"/>
<rect fill="red" height="10" width="10" x="105.02305424652131" y="-28.394778703470145"/>
<rect fill="red" height="10" width="10" x="154.00318260986325" y="-146.04475672848355"/>
<rect fill="red" height="10" width="10" x="184.20003241978347" y="-144.705395314726"/>
<rect fill="red" height="10" width="10" x="428.1655151243308" y="-27.2655870249487"/>
<rect fill="red" height="10" width="10" x="195.93069249868074" y="-40.93696982800622"/>
<rect fill="red" height="10" width="10" x="17.849284965284383" y="-125.1801639452857"/>
<rect fill="red" height="10" width="10" x="238.00468840440158" y="-162.2386190591205"/>
<rect fill="red" height="10" width="10" x="126.87954319030115" y="-72.91687288695027"/>
<rect fill="red" height="10" width="10" x="78.63398492257089" y="-139.77101918158655"/>
<rect fill="red" height="10" width="10" x="184.48248750809228" y="-170.91582281559033"/>
<rect fill="red" height="10" width="10" x="114.64720591201447" y="-95.89265354676425"/>
<rect fill="red" height="10" width="10" x="76.37786096654303" y="-19.687998861667236"/>
<rect fill="red" height="10" width="10" x="303.80614504997175" y="-105.37434716807984"/>
<rect fill="red" height="10" width="10" x="186.91164798127204" y="-48.13563039478727"/>
<rect fill="red" height="10" width="10" x="215.5972112118226" y="-176.91918372270675"/>
<rect fill="red" height="10" width="10" x="89.88276000586126" y="-123.64146816923456"/>
<rect fill="red" height="10" width="10" x="79.13384861715568" y="-59.729810688110106"/>
<rect fill="red" height="10" width="10" x="148.47335506096124" y="-29.069497012581202"/>
<rect fill="red" height="10" width="10" x="94.73065623988111" y="-167.67650917966282"/>
<rect fill="red" height="10" width="10" x="271.70260283719733" y="-73.58588932181655"/>
<rect fill="red" height="10" width="10" x="49.620257752370584" y="-77.19052636137216"/>
<rect fill="red" height="10" width="10" x="486.5913868275591" y="-11.081052044827189"/>
<rect fill="red" height="10" width="10" x="30.43486891144559" y="-11.791082205109928"/>
<rect fill="red" height="10" width="10" x="231.0652548170211" y="-96.05804017780441"/>
<rect fill="red" height="10" width="10" x="86.83943157596062" y="-159.04007846086188"/>
<rect fill="red" height="10" width="10" x="187.31473677771237" y="-60.40060283568799"/>
<rect fill="red" height="10" width="10" x="92.25615992195205" y="-132.38454454678197"/>
<rect fill="red" height="10" width="10" x="21.37018684429186" y="-135.77048337545628"/>
<rect fill="red" height="10" width="10" x="83.77389976425182" y="-37.63817930242014"/>
<rect fill="red" height="10" width="10" x="203.50241516891634" y="-78.28892305393732"/>
<rect fill="red" height="10" width="10" x="211.9393650052153" y="-13.37283571060873"/>
<rect fill="red" height="10" width="10" x="3.5884181170954665" y="-49.61090830793516"/>
<rect fill="red" height="10" width="10" x="82.91550769933903" y="-41.65683508212716"/>
<rect fill="red" height="10" width="10" x="17.80029812168261" y="-45.90828175498905"/>
<rect fill="red" height="10" width="10" x="57.31516479963708" y="-14.52394868726269"/>
<rect fill="red" height="10" width="10" x="291.8359329517553" y="-137.48227581126304"/>
<rect fill="red" height="10" width="10" x="116.60123042614353" y="-149.37657032436127"/>
<rect fill="red" height="10" width="10" x="40.51113671751416" y="-147.7813495371994"/>
<rect fill="red" height="10" width="10" x="239.11256076326967" y="-172.94617704485935"/>
<rect fill="red" height="10" width="10" x="146.23490044353034" y="-92.73151020723277"/>
<rect fill="red" height="10" width="10" x="74.62418388194293" y="-148.24941876650695"/>
<rect fill="red" height="10" width="10" x="9.075209531259429" y="-72.94182544993554"/>
<rect fill="red" height="10" width="10" x="328.49345467455123" y="-43.53221405402442"/>
<rect fill="red" height="10" width="10" x="161.73785867374278" y="-46.65326987496448"/>
<rect fill="red" height="10" width="10" x="222.00555343013315" y="-134.2848444094172"/>
<rect fill="red" height="10" width="10" x="322.9838818273504" y="-78.4256146801653"/>
<rect fill="red" height="10" width="10" x="45.90821403235328" y="-117.97152431006312"/>
<rect fill="red" height="10" width="10" x="133.53312137835593" y="-40.121167923981545"/>
<rect fill="red" height="10" width="10" x="236.27182293864774" y="-101.8089611873849"/>
<rect fill="red" height="10" width="10" x="124.87735911007687" y="-191.78818584637418"/>
<rect fill="red" height="10" width="10" x="130.93169713774142" y="-25.651295738035895"/>
<rect fill="red" height="10" width="10" x="118.74403350326463" y="-57.77527632199709"/>
<rect fill="red" height="10" width="10" x="124.90626227576001" y="-86.43706560553429"/>
<rect fill="red" height="10" width="10" x="124.87473802607417" y="-106.99003130275084"/>
<rect fill="red" height="10" width="10" x="48.037734944866806" y="-85.31609173797145"/>
<rect fill="red" height="10" width="10" x="167.02595840881094" y="-80.0020699880237"/>
<rect fill="red" height="10" width="10" x="79.26340306065956" y="-112.76419015286538"/>
<rect fill="red" height="10" width="10" x="138.65141504718443" y="-166.92924671839393"/>
<rect fill="red" height="10" width="10" x="134.49112184199566" y="-29.646465576029264"/>
</g>
<g>
<circle cx="372.5508226215173" cy="-239.88244843319848" fill="green" r="5"/>
</g>
<g>
<circle cx="71.49515346833847" cy="-295.53733604903545" fill="blue" r="5"/>
</g>
<g>
<circle cx="155.09220838004256" cy="-82.73559810984423" fill="red" r="5"/>
</g>
<g>
<g>
<line stroke="black" stroke-width="1" x1="51" x2="51" y1="0" y2="10"/>
<line stroke="black" stroke-width="1" x1="153" x2="153" y1="0" y2="10"/>
<line stroke="black" stroke-width="1" x1="255" x2="255" y1="0" y2="10"/>
<line stroke="black" stroke-width="1" x1="357" x2="357" y1="0" y2="10"/>
<line stroke="black" stroke-width="1" x1="459" x2="459" y1="0" y2="10"/>
</g>
<line stroke="black" stroke-width="1" x1="0" x2="510" y1="0" y2="0"/>
<g>
<text font-size="12" text-anchor="middle" x="51" y="20">
-4
</text>
<text font-size="12" text-anchor="middle" x="153" y="20">
-2
</text>
<text font-size="12" text-anchor="middle" x="255" y="20">
0
</text>
<text font-size="12" text-anchor="middle" x="357" y="20">
2
</text>
<text font-size="12" text-anchor="middle" x="459" y="20">
4
</text>
</g>
<text font-size="12" text-anchor="middle" x="255" y="30">
x-axis
</text>
</g>
<g>
<g>
<line stroke="black" stroke-width="1" x1="0" x2="-10" y1="-34" y2="-34"/>
<line stroke="black" stroke-width="1" x1="0" x2="-10" y1="-102" y2="-102"/>
<line stroke="black" stroke-width="1" x1="0" x2="-10" y1="-170" y2="-170"/>
<line stroke="black" stroke-width="1" x1="0" x2="-10" y1="-238" y2="-238"/>
<line stroke="black" stroke-width="1" x1="0" x2="-10" y1="-306" y2="-306"/>
</g>
<line stroke="black" stroke-width="1" x1="0" x2="0" y1="0" y2="-340"/>
<g>
<text dominant-baseline="middle" font-size="12" text-anchor="end" x="-15" y="-34">
-4
</text>
<text dominant-baseline="middle" font-size="12" text-anchor="end" x="-15" y="-102">
-2
</text>
<text dominant-baseline="middle" font-size="12" text-anchor="end" x="-15" y="-170">
0
</text>
<text dominant-baseline="middle" font-size="12" text-anchor="end" x="-15" y="-238">
2
</text>
<text dominant-baseline="middle" font-size="12" text-anchor="end" x="-15" y="-306">
4
</text>
</g>
<text font-size="12" text-anchor="middle" transform="rotate(-90 -30 -170)" x="-30" y="-182">
y-axis
</text>
</g>
</g>
</svg>