<svg viewBox="0 0 600 400" xmlns="http://www.w3.org/2000/svg">
<g transform="translate(54, 364)">
<g>
<rect fill="green" height="10" width="10" x="4.066757527579023" y="-312.0403610659381"/>
<rect fill="green" height="10" width="10" x="23.522434879379478" y="-335.05496768644105"/>
<rect fill="green" height="10" width="10" x="17.9828778196297" y="-326.4306218958845"/>
<rect fill="green" height="10" width="10" x="15.079396956335323" y="-307.3199235099473"/>
<rect fill="green" height="10" width="10" x="3.939048403011851" y="-308.02108559346715"/>
<rect fill="green" height="10" width="10" x="30.927819468838422" y="-327.5510738529973"/>
<rect fill="green" height="10" width="10" x="0.1946228071393472" y="-308.27421786890636"/>
<rect fill="green" height="10" width="10" x="26.349548552338554" y="-325.370207838803"/>
<rect fill="green" height="10" width="10" x="-3.259839962922639" y="-339.93251232553797"/>
<rect fill="green" height="10" width="10" x="42.662621246745886" y="-324.1477468527175"/>
<rect fill="green" height="10" width="10" x="8.851925091209278" y="-336.39904604429273"/>
<rect fill="green" height="10" width="10" x="15.307436987890465" y="-340.63119608088437"/>
<rect fill="green" height="10" width="10" x="36.08417340460012" y="-333.86327282086154"/>
<rect fill="green" height="10" width="10" x="-3.3055116914140124" y="-344.98959270908097"/>
<rect fill="green" height="10" width="10" x="1.672280484057831" y="-307.6515737916671"/>
<rect fill="green" height="10" width="10" x="17.03225836341763" y="-313.4628395869099"/>
<rect fill="green" height="10" width="10" x="10.30059374392383" y="-302.3697896341017"/>
<rect fill="green" height="10" width="10" x="9.561837720773813" y="-322.40263672086104"/>
<rect fill="green" height="10" width="10" x="28.07979915647742" y="-342.56189487083054"/>
<rect fill="green" height="10" width="10" x="12.578572624537138" y="-328.77481361518556"/>
<rect fill="green" height="10" width="10" x="40.747188235726156" y="-337.7622088644011"/>
</g>
<g>
<rect fill="blue" height="10" width="10" x="492.7204660932881" y="-178.26718547760473"/>
<rect fill="blue" height="10" width="10" x="240.48286064289192" y="-167.46339050768518"/>
<rect fill="blue" height="10" width="10" x="285.02349760867827" y="-176.0399229828881"/>
<rect fill="blue" height="10" width="10" x="434.4022990345308" y="-184.21951821121246"/>
<rect fill="blue" height="10" width="10" x="371.1228603164631" y="-198.3429001663939"/>
<rect fill="blue" height="10" width="10" x="433.01646850204963" y="-189.40151600261532"/>
<rect fill="blue" height="10" width="10" x="359.15340888329865" y="-179.583521355718"/>
<rect fill="blue" height="10" width="10" x="242.88608877135653" y="-173.74727978787607"/>
<rect fill="blue" height="10" width="10" x="333.4353702420966" y="-205.69164194719758"/>
<rect fill="blue" height="10" width="10" x="261.7693012683934" y="-186.0812498663484"/>
<rect fill="blue" height="10" width="10" x="310.5468037015718" y="-183.58921359454655"/>
<rect fill="blue" height="10" width="10" x="319.0985599664028" y="-200.03185673001968"/>
<rect fill="blue" height="10" width="10" x="459.91112700726705" y="-185.80370968881812"/>
<rect fill="blue" height="10" width="10" x="371.73146753667146" y="-183.32648603033763"/>
<rect fill="blue" height="10" width="10" x="251.03325733044773" y="-176.82360645826412"/>
<rect fill="blue" height="10" width="10" x="365.25698482996364" y="-176.2423539121899"/>
<rect fill="blue" height="10" width="10" x="433.3807931069926" y="-178.35193588738224"/>
</g>
<g>
<rect fill="red" height="10" width="10" x="154.4698662048746" y="-158.79623013451106"/>
<rect fill="red" height="10" width="10" x="-3.416381361885323" y="-155.72588362010384"/>
<rect fill="red" height="10" width="10" x="78.68504583906822" y="-162.6659022801469"/>
<rect fill="red" height="10" width="10" x="41.4055602394087" y="-133.4689506302836"/>
<rect fill="red" height="10" width="10" x="19.338967704140558" y="-147.17793085946644"/>
<rect fill="red" height="10" width="10" x="156.14246509101028" y="-168.3065794027313"/>
<rect fill="red" height="10" width="10" x="93.82804012644449" y="-144.77317588678056"/>
<rect fill="red" height="10" width="10" x="103.04747894372576" y="-172.79668341616878"/>
<rect fill="red" height="10" width="10" x="2.9069048976647194" y="-86.26116875406959"/>
<rect fill="red" height="10" width="10" x="98.34786745587164" y="-135.75100577558823"/>
<rect fill="red" height="10" width="10" x="33.710141696100294" y="-108.33682901304694"/>
<rect fill="red" height="10" width="10" x="23.084231793912373" y="-114.22150824454096"/>
<rect fill="red" height="10" width="10" x="-1.0151122573494327" y="-139.9322742613872"/>
<rect fill="red" height="10" width="10" x="-1.3223933549226743" y="-105.50586466010346"/>
<rect fill="red" height="10" width="10" x="90.41639797273291" y="-165.77153259232531"/>
<rect fill="red" height="10" width="10" x="-3.3819131074076463" y="-105.59431210145212"/>
<rect fill="red" height="10" width="10" x="197.2414692686067" y="-164.04678506351064"/>
<rect fill="red" height="10" width="10" x="57.55337156028819" y="-146.79658142801208"/>
<rect fill="red" height="10" width="10" x="171.86541317322187" y="-171.59681580351145"/>
<rect fill="red" height="10" width="10" x="146.3445177839173" y="-174.70071349793892"/>
<rect fill="red" height="10" width="10" x="37.61495700158001" y="-148.94016036354628"/>
</g>
<g>
<circle cx="21.113135324727406" cy="-320.0005515823675" fill="green" r="5"/>
</g>
<g>
<circle cx="355.8806832260214" cy="-178.70631109453518" fill="blue" r="5"/>
</g>
<g>
<circle cx="76.27937603195254" cy="-138.38889941853455" fill="red" r="5"/>
</g>
<g>
<g>
<line stroke="black" stroke-width="1" x1="51" x2="51" y1="0" y2="10"/>
<line stroke="black" stroke-width="1" x1="153" x2="153" y1="0" y2="10"/>
<line stroke="black" stroke-width="1" x1="255" x2="255" y1="0" y2="10"/>
<line stroke="black" stroke-width="1" x1="357" x2="357" y1="0" y2="10"/>
<line stroke="black" stroke-width="1" x1="459" x2="459" y1="0" y2="10"/>
</g>
<line stroke="black" stroke-width="1" x1="0" x2="510" y1="0" y2="0"/>
<g>
<text font-size="12" text-anchor="middle" x="51" y="20">
-4
</text>
<text font-size="12" text-anchor="middle" x="153" y="20">
-2
</text>
<text font-size="12" text-anchor="middle" x="255" y="20">
0
</text>
<text font-size="12" text-anchor="middle" x="357" y="20">
2
</text>
<text font-size="12" text-anchor="middle" x="459" y="20">
4
</text>
</g>
<text font-size="12" text-anchor="middle" x="255" y="30">
x-axis
</text>
</g>
<g>
<g>
<line stroke="black" stroke-width="1" x1="0" x2="-10" y1="-34" y2="-34"/>
<line stroke="black" stroke-width="1" x1="0" x2="-10" y1="-102" y2="-102"/>
<line stroke="black" stroke-width="1" x1="0" x2="-10" y1="-170" y2="-170"/>
<line stroke="black" stroke-width="1" x1="0" x2="-10" y1="-238" y2="-238"/>
<line stroke="black" stroke-width="1" x1="0" x2="-10" y1="-306" y2="-306"/>
</g>
<line stroke="black" stroke-width="1" x1="0" x2="0" y1="0" y2="-340"/>
<g>
<text dominant-baseline="middle" font-size="12" text-anchor="end" x="-15" y="-34">
-4
</text>
<text dominant-baseline="middle" font-size="12" text-anchor="end" x="-15" y="-102">
-2
</text>
<text dominant-baseline="middle" font-size="12" text-anchor="end" x="-15" y="-170">
0
</text>
<text dominant-baseline="middle" font-size="12" text-anchor="end" x="-15" y="-238">
2
</text>
<text dominant-baseline="middle" font-size="12" text-anchor="end" x="-15" y="-306">
4
</text>
</g>
<text font-size="12" text-anchor="middle" transform="rotate(-90 -30 -170)" x="-30" y="-182">
y-axis
</text>
</g>
</g>
</svg>