<svg viewBox="0 0 600 400" xmlns="http://www.w3.org/2000/svg">
<g transform="translate(54, 364)">
<g>
<rect fill="green" height="10" width="10" x="207.0527396045531" y="-58.12106772326903"/>
<rect fill="green" height="10" width="10" x="105.98165513771809" y="-127.32555332395907"/>
<rect fill="green" height="10" width="10" x="205.3904910586566" y="-123.71582189258916"/>
<rect fill="green" height="10" width="10" x="53.573941356638215" y="-160.50317104324307"/>
<rect fill="green" height="10" width="10" x="6.79204620153803" y="-7.3237913058327635"/>
<rect fill="green" height="10" width="10" x="203.5234928803215" y="-16.79613286410352"/>
<rect fill="green" height="10" width="10" x="232.49210297233554" y="-139.07850540875168"/>
<rect fill="green" height="10" width="10" x="231.25865562179973" y="-162.29166187854293"/>
<rect fill="green" height="10" width="10" x="175.40405154849134" y="-91.24842697155431"/>
<rect fill="green" height="10" width="10" x="165.4338220445468" y="-11.850591493736406"/>
<rect fill="green" height="10" width="10" x="226.15782305472848" y="-38.09768925335605"/>
<rect fill="green" height="10" width="10" x="206.5732620681012" y="-93.01342397984945"/>
<rect fill="green" height="10" width="10" x="226.29853888689019" y="-7.565718700569937"/>
<rect fill="green" height="10" width="10" x="137.44221987392402" y="-9.650630360155613"/>
<rect fill="green" height="10" width="10" x="140.73743668637232" y="-102.92193747267224"/>
<rect fill="green" height="10" width="10" x="224.91039006112024" y="-40.91456927304792"/>
<rect fill="green" height="10" width="10" x="178.7925870930913" y="-28.808292978349346"/>
<rect fill="green" height="10" width="10" x="40.85318156474932" y="-69.60940858863499"/>
<rect fill="green" height="10" width="10" x="94.02511008667301" y="-141.13777628035785"/>
<rect fill="green" height="10" width="10" x="69.32816643780126" y="-73.63336306481133"/>
<rect fill="green" height="10" width="10" x="30.583773530238382" y="-61.51168790984925"/>
<rect fill="green" height="10" width="10" x="197.79139197790292" y="-49.750372602840095"/>
<rect fill="green" height="10" width="10" x="438.7581069557382" y="-12.280455646891317"/>
<rect fill="green" height="10" width="10" x="198.4383331566841" y="-147.9681515457084"/>
<rect fill="green" height="10" width="10" x="207.8332203986075" y="-112.82953243325161"/>
<rect fill="green" height="10" width="10" x="69.55620216847389" y="-118.42874284264454"/>
<rect fill="green" height="10" width="10" x="313.2345550527023" y="-26.522244932828542"/>
<rect fill="green" height="10" width="10" x="191.87373711942266" y="-86.44752022323591"/>
<rect fill="green" height="10" width="10" x="177.84335214176411" y="-67.54243556379265"/>
<rect fill="green" height="10" width="10" x="117.65275575485823" y="-154.692590400381"/>
<rect fill="green" height="10" width="10" x="19.944971533308397" y="-87.64698215213107"/>
<rect fill="green" height="10" width="10" x="134.8061195277767" y="-14.256191713679616"/>
<rect fill="green" height="10" width="10" x="227.64896299232367" y="-9.046022214957011"/>
<rect fill="green" height="10" width="10" x="234.60279721196088" y="-53.14810153124846"/>
<rect fill="green" height="10" width="10" x="-2.4835628298425307" y="-153.22537344493145"/>
<rect fill="green" height="10" width="10" x="75.9206724682875" y="-89.5349457529105"/>
<rect fill="green" height="10" width="10" x="40.90444002120637" y="-152.43298802891513"/>
<rect fill="green" height="10" width="10" x="93.9933813814988" y="-114.82777188487714"/>
<rect fill="green" height="10" width="10" x="262.59900103437076" y="-23.16166860003695"/>
<rect fill="green" height="10" width="10" x="41.16759258276213" y="-157.7800280335533"/>
<rect fill="green" height="10" width="10" x="242.85254403236667" y="-101.55725204116224"/>
<rect fill="green" height="10" width="10" x="134.8429378596445" y="-149.2995950317823"/>
<rect fill="green" height="10" width="10" x="147.94893216243256" y="-39.958377595531"/>
<rect fill="green" height="10" width="10" x="232.54776749009358" y="-54.83767670276218"/>
<rect fill="green" height="10" width="10" x="98.20241977412839" y="-98.33587848174268"/>
<rect fill="green" height="10" width="10" x="67.35058381660728" y="-56.97925522480218"/>
<rect fill="green" height="10" width="10" x="65.26406111829466" y="-13.359748093153971"/>
<rect fill="green" height="10" width="10" x="164.7577208042886" y="-19.424070680899927"/>
<rect fill="green" height="10" width="10" x="417.09377235749014" y="-10.077812110062549"/>
<rect fill="green" height="10" width="10" x="25.119677915879187" y="-74.63017920974688"/>
<rect fill="green" height="10" width="10" x="170.7140510766051" y="-171.93458394782584"/>
<rect fill="green" height="10" width="10" x="202.0743390180152" y="-63.59531815833924"/>
<rect fill="green" height="10" width="10" x="101.45103050277422" y="-137.99539639711884"/>
<rect fill="green" height="10" width="10" x="213.64811193777282" y="-10.916570736182056"/>
<rect fill="green" height="10" width="10" x="227.46742722881987" y="-88.84121728103777"/>
<rect fill="green" height="10" width="10" x="216.46621754532552" y="-45.09984696439302"/>
<rect fill="green" height="10" width="10" x="49.25765608341836" y="-168.59775134439568"/>
<rect fill="green" height="10" width="10" x="189.1385203038405" y="-88.12366852519196"/>
<rect fill="green" height="10" width="10" x="152.4221586469633" y="-29.743501037491573"/>
<rect fill="green" height="10" width="10" x="187.4071129893646" y="-150.96795501552327"/>
<rect fill="green" height="10" width="10" x="161.70164524619145" y="-39.88741562927565"/>
<rect fill="green" height="10" width="10" x="76.02931458841935" y="-15.963631381283646"/>
<rect fill="green" height="10" width="10" x="82.98663199971139" y="-25.431462221532122"/>
<rect fill="green" height="10" width="10" x="45.57136295057432" y="-47.3389123804737"/>
<rect fill="green" height="10" width="10" x="182.983552472713" y="-178.76737454147204"/>
<rect fill="green" height="10" width="10" x="18.505979900752365" y="-36.94887140425238"/>
<rect fill="green" height="10" width="10" x="416.3020871430693" y="-43.911551540131676"/>
<rect fill="green" height="10" width="10" x="94.46035277862697" y="-141.353450324171"/>
<rect fill="green" height="10" width="10" x="423.6186525964657" y="-19.626051000446473"/>
<rect fill="green" height="10" width="10" x="174.42731646954834" y="-119.97487701706723"/>
<rect fill="green" height="10" width="10" x="16.05863710290655" y="-80.5886989131987"/>
<rect fill="green" height="10" width="10" x="137.87419472062638" y="-124.39143662927673"/>
<rect fill="green" height="10" width="10" x="49.18259872693257" y="-40.45362845573374"/>
<rect fill="green" height="10" width="10" x="298.0527044642946" y="-20.106278627170504"/>
<rect fill="green" height="10" width="10" x="183.77882033234275" y="-158.13727306781297"/>
<rect fill="green" height="10" width="10" x="84.17154105684915" y="-27.046860440006395"/>
<rect fill="green" height="10" width="10" x="73.10638316920263" y="-64.39549975783964"/>
<rect fill="green" height="10" width="10" x="193.9246126331463" y="-173.34406228530904"/>
<rect fill="green" height="10" width="10" x="145.59108016217135" y="-160.8596681913772"/>
<rect fill="green" height="10" width="10" x="30.676676035752287" y="-44.53323474403879"/>
<rect fill="green" height="10" width="10" x="208.95579935677588" y="-68.23095468001435"/>
<rect fill="green" height="10" width="10" x="81.14540113029427" y="-10.298956360406464"/>
<rect fill="green" height="10" width="10" x="251.27604307962224" y="-8.326437075554782"/>
<rect fill="green" height="10" width="10" x="178.3240121322851" y="-28.50333457774389"/>
<rect fill="green" height="10" width="10" x="398.6042817996628" y="-52.58075938157129"/>
<rect fill="green" height="10" width="10" x="137.01986257414814" y="-134.31865046462892"/>
<rect fill="green" height="10" width="10" x="14.667168036955367" y="-19.22341763187301"/>
<rect fill="green" height="10" width="10" x="299.262237209262" y="-45.43172687692034"/>
<rect fill="green" height="10" width="10" x="59.27767034367298" y="-111.91967325025253"/>
<rect fill="green" height="10" width="10" x="276.2722870976017" y="-21.441550244832424"/>
<rect fill="green" height="10" width="10" x="170.72146691656218" y="-123.68661592337779"/>
<rect fill="green" height="10" width="10" x="65.45019699249497" y="-154.36982976594703"/>
<rect fill="green" height="10" width="10" x="55.809669230776294" y="-21.84305530712716"/>
<rect fill="green" height="10" width="10" x="0.1792159258453463" y="-81.31268339618056"/>
<rect fill="green" height="10" width="10" x="135.60848489729742" y="-145.17015198733034"/>
<rect fill="green" height="10" width="10" x="162.55244647123897" y="-95.08209939094158"/>
<rect fill="green" height="10" width="10" x="7.360906712389557" y="-24.173244903131142"/>
<rect fill="green" height="10" width="10" x="41.38282772927296" y="-166.6626486397349"/>
<rect fill="green" height="10" width="10" x="229.36761840379683" y="-95.98774201678765"/>
<rect fill="green" height="10" width="10" x="52.549732826036255" y="-167.7306144072378"/>
<rect fill="green" height="10" width="10" x="444.97607833925696" y="-49.41636365519886"/>
<rect fill="green" height="10" width="10" x="27.614676653736296" y="-84.04115055055334"/>
<rect fill="green" height="10" width="10" x="137.71200695396655" y="-68.03118001641297"/>
<rect fill="green" height="10" width="10" x="24.731036190362556" y="-51.024189092275776"/>
<rect fill="green" height="10" width="10" x="170.775827370197" y="-58.53791958358166"/>
<rect fill="green" height="10" width="10" x="81.58155343436933" y="-113.74006705378626"/>
<rect fill="green" height="10" width="10" x="127.5132302303889" y="-54.97984478103457"/>
<rect fill="green" height="10" width="10" x="40.182571386717356" y="-154.11754733427318"/>
<rect fill="green" height="10" width="10" x="207.2519553016619" y="-87.73538391550349"/>
<rect fill="green" height="10" width="10" x="290.2061923574184" y="-115.5725328621631"/>
<rect fill="green" height="10" width="10" x="70.67379221730485" y="-55.052856636489715"/>
<rect fill="green" height="10" width="10" x="62.369412137382454" y="-35.46837317876434"/>
<rect fill="green" height="10" width="10" x="-2.7054000381429857" y="-149.3453653567355"/>
<rect fill="green" height="10" width="10" x="78.48831339106076" y="-73.02775561611557"/>
<rect fill="green" height="10" width="10" x="131.78426870267202" y="-155.1252420441428"/>
<rect fill="green" height="10" width="10" x="149.72407038811752" y="-187.74148364336702"/>
<rect fill="green" height="10" width="10" x="52.05943057294784" y="-130.80112992387578"/>
<rect fill="green" height="10" width="10" x="147.9310844467647" y="-37.38312284371163"/>
<rect fill="green" height="10" width="10" x="25.4927247718417" y="-140.12150226227527"/>
<rect fill="green" height="10" width="10" x="131.78549376456743" y="-107.83624675788266"/>
<rect fill="green" height="10" width="10" x="244.0304346311516" y="-8.826219689930998"/>
<rect fill="green" height="10" width="10" x="497.9570697142988" y="-14.743187798743616"/>
<rect fill="green" height="10" width="10" x="240.42885537032984" y="-122.09228478831874"/>
<rect fill="green" height="10" width="10" x="183.94344400130478" y="-52.854307251635944"/>
<rect fill="green" height="10" width="10" x="198.8521429733898" y="-41.043779743095165"/>
<rect fill="green" height="10" width="10" x="232.35827189047131" y="-90.27331497093041"/>
<rect fill="green" height="10" width="10" x="246.096912765617" y="-13.34557307145219"/>
<rect fill="green" height="10" width="10" x="27.18089811860049" y="-90.40867479976734"/>
<rect fill="green" height="10" width="10" x="235.64902246264592" y="-156.36923523678277"/>
<rect fill="green" height="10" width="10" x="81.97354436019339" y="-37.731403441102074"/>
<rect fill="green" height="10" width="10" x="227.96680921907173" y="-68.76208470829015"/>
<rect fill="green" height="10" width="10" x="243.11564137066975" y="-135.69640790686788"/>
<rect fill="green" height="10" width="10" x="158.17000234242045" y="-91.08323828655082"/>
<rect fill="green" height="10" width="10" x="465.3726582101199" y="-41.70831137669824"/>
<rect fill="green" height="10" width="10" x="62.35998820873478" y="-51.134547494020815"/>
<rect fill="green" height="10" width="10" x="298.96921722235845" y="-99.51305585718757"/>
<rect fill="green" height="10" width="10" x="17.422024144349642" y="-73.85475783940574"/>
<rect fill="green" height="10" width="10" x="77.3432188693933" y="-130.10781477757274"/>
<rect fill="green" height="10" width="10" x="67.60127938434889" y="-51.70133928731246"/>
<rect fill="green" height="10" width="10" x="9.927870441121112" y="-8.649818533909482"/>
<rect fill="green" height="10" width="10" x="9.82350893892415" y="-50.79972362849533"/>
<rect fill="green" height="10" width="10" x="37.2890969695553" y="-147.87994013085327"/>
</g>
<g>
<rect fill="blue" height="10" width="10" x="253.521571742273" y="-227.43326046408802"/>
<rect fill="blue" height="10" width="10" x="476.8650322247405" y="-269.3345561258346"/>
<rect fill="blue" height="10" width="10" x="346.6510186774402" y="-317.6818618562608"/>
<rect fill="blue" height="10" width="10" x="436.6560938988271" y="-319.6349414399027"/>
<rect fill="blue" height="10" width="10" x="350.5953833794626" y="-334.1033244051083"/>
<rect fill="blue" height="10" width="10" x="341.624809026325" y="-325.196879179308"/>
<rect fill="blue" height="10" width="10" x="469.4043244793338" y="-279.30641288839973"/>
<rect fill="blue" height="10" width="10" x="264.22919269701293" y="-286.770352288125"/>
<rect fill="blue" height="10" width="10" x="286.34491943249657" y="-303.5188541576162"/>
<rect fill="blue" height="10" width="10" x="481.1458141040237" y="-118.83572451644588"/>
<rect fill="blue" height="10" width="10" x="278.86252000270633" y="-209.01298154076264"/>
<rect fill="blue" height="10" width="10" x="492.32128413065755" y="-287.9014747359254"/>
<rect fill="blue" height="10" width="10" x="407.00782397053047" y="-205.09469231212447"/>
<rect fill="blue" height="10" width="10" x="476.5928095590965" y="-178.31035671416583"/>
<rect fill="blue" height="10" width="10" x="317.64526240593887" y="-276.69757275531276"/>
<rect fill="blue" height="10" width="10" x="502.9561427974844" y="-195.36704438393966"/>
<rect fill="blue" height="10" width="10" x="458.00131770870695" y="-185.5249666046447"/>
<rect fill="blue" height="10" width="10" x="410.3179642934212" y="-214.21623661977281"/>
<rect fill="blue" height="10" width="10" x="378.7293848350405" y="-294.9942108203764"/>
<rect fill="blue" height="10" width="10" x="268.7110788572264" y="-179.99629356420084"/>
<rect fill="blue" height="10" width="10" x="429.71968318456885" y="-230.00198214843445"/>
<rect fill="blue" height="10" width="10" x="371.0033483794215" y="-331.60590351820997"/>
<rect fill="blue" height="10" width="10" x="502.81571589774177" y="-330.79348915230037"/>
<rect fill="blue" height="10" width="10" x="416.37987790525705" y="-106.94621749814571"/>
<rect fill="blue" height="10" width="10" x="341.414863208715" y="-209.88091580228206"/>
<rect fill="blue" height="10" width="10" x="404.5462614094765" y="-293.82120322024224"/>
<rect fill="blue" height="10" width="10" x="314.60323194760724" y="-247.99660323972725"/>
<rect fill="blue" height="10" width="10" x="381.4238952412633" y="-229.48600425374102"/>
<rect fill="blue" height="10" width="10" x="431.95838064507825" y="-204.99943536212203"/>
<rect fill="blue" height="10" width="10" x="216.2433919722127" y="-235.52621594008087"/>
<rect fill="blue" height="10" width="10" x="304.55518311182806" y="-249.6438828000286"/>
<rect fill="blue" height="10" width="10" x="380.1489440196473" y="-212.16578491675472"/>
<rect fill="blue" height="10" width="10" x="310.448239383374" y="-308.0599751900011"/>
<rect fill="blue" height="10" width="10" x="346.6359637709391" y="-268.6715912838134"/>
<rect fill="blue" height="10" width="10" x="348.4380571838266" y="-203.2343032430121"/>
<rect fill="blue" height="10" width="10" x="391.06388293569023" y="-272.1740498851133"/>
<rect fill="blue" height="10" width="10" x="472.72227920702807" y="-311.33460758923155"/>
<rect fill="blue" height="10" width="10" x="467.9709640148018" y="-251.9777437035892"/>
<rect fill="blue" height="10" width="10" x="340.49269264108057" y="-235.2728524572086"/>
<rect fill="blue" height="10" width="10" x="442.7803054851258" y="-286.28009923582755"/>
<rect fill="blue" height="10" width="10" x="342.0866242951711" y="-223.48621230852473"/>
<rect fill="blue" height="10" width="10" x="427.5257736974337" y="-211.5593308570486"/>
<rect fill="blue" height="10" width="10" x="351.2964152196753" y="-195.951861492699"/>
<rect fill="blue" height="10" width="10" x="258.49508604519076" y="-201.17242255908494"/>
<rect fill="blue" height="10" width="10" x="250.6540464477627" y="-292.86469002599443"/>
<rect fill="blue" height="10" width="10" x="426.27134308656025" y="-275.48638544653215"/>
<rect fill="blue" height="10" width="10" x="276.4830233110296" y="-235.03876184837927"/>
<rect fill="blue" height="10" width="10" x="410.11367931581873" y="-211.43680819706407"/>
<rect fill="blue" height="10" width="10" x="269.31447113462383" y="-206.97480497260455"/>
<rect fill="blue" height="10" width="10" x="334.7197767068847" y="-261.13699402406246"/>
<rect fill="blue" height="10" width="10" x="395.5046667393923" y="-234.80623772599762"/>
<rect fill="blue" height="10" width="10" x="380.3942327897688" y="-184.39428097671453"/>
<rect fill="blue" height="10" width="10" x="299.40963731500926" y="-328.43233996454546"/>
<rect fill="blue" height="10" width="10" x="360.52087544875417" y="-170.01611635412775"/>
<rect fill="blue" height="10" width="10" x="472.932573900795" y="-318.08997646005105"/>
<rect fill="blue" height="10" width="10" x="284.65231497523285" y="-269.40876632779356"/>
<rect fill="blue" height="10" width="10" x="483.45304165400694" y="-231.67531247184712"/>
<rect fill="blue" height="10" width="10" x="413.6054219051295" y="-194.26361491601176"/>
<rect fill="blue" height="10" width="10" x="252.07205072177095" y="-227.150666419424"/>
<rect fill="blue" height="10" width="10" x="342.09621485445535" y="-250.31987143957878"/>
<rect fill="blue" height="10" width="10" x="284.3583120307213" y="-304.7969143735943"/>
<rect fill="blue" height="10" width="10" x="342.53937476137435" y="-237.1254514453273"/>
<rect fill="blue" height="10" width="10" x="262.4107180107085" y="-293.5643761638583"/>
<rect fill="blue" height="10" width="10" x="438.22185621006963" y="-309.15769225851346"/>
<rect fill="blue" height="10" width="10" x="352.3376302995676" y="-309.7918167673992"/>
<rect fill="blue" height="10" width="10" x="459.2966644494947" y="-300.9764923730662"/>
<rect fill="blue" height="10" width="10" x="360.0294602661841" y="-241.8362701554028"/>
<rect fill="blue" height="10" width="10" x="497.2203575388826" y="-176.70063483411153"/>
<rect fill="blue" height="10" width="10" x="301.088979073425" y="-307.7155443458523"/>
<rect fill="blue" height="10" width="10" x="373.89254507888563" y="-312.44485129480864"/>
<rect fill="blue" height="10" width="10" x="386.3338106696748" y="-141.60998316023728"/>
<rect fill="blue" height="10" width="10" x="504.55934759928516" y="-304.9123350293104"/>
<rect fill="blue" height="10" width="10" x="409.63241215386114" y="-251.60429165367063"/>
<rect fill="blue" height="10" width="10" x="309.6583862082565" y="-327.24676203101734"/>
<rect fill="blue" height="10" width="10" x="394.0668947695687" y="-268.60772703799694"/>
<rect fill="blue" height="10" width="10" x="477.4457986073372" y="-193.78982935116548"/>
<rect fill="blue" height="10" width="10" x="431.20959424987615" y="-278.6347904124929"/>
<rect fill="blue" height="10" width="10" x="491.40017302420483" y="-261.98395094079973"/>
<rect fill="blue" height="10" width="10" x="276.11976400865046" y="-228.980158700435"/>
<rect fill="blue" height="10" width="10" x="317.19042575802683" y="-274.3508714305484"/>
<rect fill="blue" height="10" width="10" x="369.2239392897949" y="-327.36186178919104"/>
<rect fill="blue" height="10" width="10" x="223.96539190877917" y="-234.79729311904785"/>
<rect fill="blue" height="10" width="10" x="402.40944600337536" y="-233.7526113824328"/>
<rect fill="blue" height="10" width="10" x="275.765003659635" y="-315.63174721040923"/>
<rect fill="blue" height="10" width="10" x="454.4838449068402" y="-98.23006980979008"/>
<rect fill="blue" height="10" width="10" x="391.09792312506863" y="-305.8141181234083"/>
<rect fill="blue" height="10" width="10" x="493.260104948696" y="-209.188352170575"/>
<rect fill="blue" height="10" width="10" x="349.70908561984476" y="-340.9944449738991"/>
<rect fill="blue" height="10" width="10" x="324.30486963885005" y="-255.08015242828932"/>
<rect fill="blue" height="10" width="10" x="490.9577744267834" y="-293.7986977239731"/>
<rect fill="blue" height="10" width="10" x="289.6012068118523" y="-207.64651568681325"/>
<rect fill="blue" height="10" width="10" x="364.0305752620602" y="-194.57448739323704"/>
<rect fill="blue" height="10" width="10" x="288.719509423128" y="-177.86022251943237"/>
<rect fill="blue" height="10" width="10" x="468.8569481425132" y="-288.18858996188"/>
<rect fill="blue" height="10" width="10" x="444.2824819042078" y="-260.8277689099928"/>
<rect fill="blue" height="10" width="10" x="303.5335013016077" y="-193.26690679404413"/>
<rect fill="blue" height="10" width="10" x="298.14105804901027" y="-218.13879938512392"/>
<rect fill="blue" height="10" width="10" x="489.51449757060726" y="-326.5893424481211"/>
<rect fill="blue" height="10" width="10" x="482.2834329600335" y="-234.76714210068445"/>
<rect fill="blue" height="10" width="10" x="353.2271538017248" y="-289.94115753260274"/>
<rect fill="blue" height="10" width="10" x="321.36346982969894" y="-316.31406796324234"/>
<rect fill="blue" height="10" width="10" x="429.3487023342016" y="-299.5118933471437"/>
<rect fill="blue" height="10" width="10" x="373.91355351286313" y="-206.33319327491358"/>
<rect fill="blue" height="10" width="10" x="360.29658280650926" y="-337.88405882102836"/>
<rect fill="blue" height="10" width="10" x="320.1487367230113" y="-342.57224142059937"/>
<rect fill="blue" height="10" width="10" x="443.6908398282094" y="-178.51496654348952"/>
<rect fill="blue" height="10" width="10" x="503.7059171245561" y="-242.13684358265772"/>
<rect fill="blue" height="10" width="10" x="333.6588631312867" y="-342.5528891396433"/>
<rect fill="blue" height="10" width="10" x="351.0797754417149" y="-206.81067701816886"/>
<rect fill="blue" height="10" width="10" x="402.23294603078955" y="-324.76083050429116"/>
<rect fill="blue" height="10" width="10" x="365.4358712585116" y="-207.02824863806603"/>
<rect fill="blue" height="10" width="10" x="460.519199675521" y="-142.87036383760682"/>
<rect fill="blue" height="10" width="10" x="339.0427222146897" y="-321.05842027158695"/>
<rect fill="blue" height="10" width="10" x="404.8511375422625" y="-258.26214969920284"/>
<rect fill="blue" height="10" width="10" x="257.3332107829614" y="-198.60482569766842"/>
<rect fill="blue" height="10" width="10" x="336.739433144701" y="-245.26490390086028"/>
<rect fill="blue" height="10" width="10" x="327.0804236442804" y="-239.71261310684844"/>
<rect fill="blue" height="10" width="10" x="427.7425942280273" y="-300.8317091242088"/>
<rect fill="blue" height="10" width="10" x="399.31377311755534" y="-309.8918429248766"/>
<rect fill="blue" height="10" width="10" x="459.15084535428076" y="-264.4965693341429"/>
<rect fill="blue" height="10" width="10" x="352.7535538958183" y="-246.360634812363"/>
<rect fill="blue" height="10" width="10" x="485.35115470092586" y="-215.79029919930727"/>
<rect fill="blue" height="10" width="10" x="457.45115011356955" y="-266.6284704338587"/>
<rect fill="blue" height="10" width="10" x="354.5049564909207" y="-298.16133351449906"/>
<rect fill="blue" height="10" width="10" x="368.7171280272647" y="-226.0292793572376"/>
<rect fill="blue" height="10" width="10" x="428.2423654176182" y="-271.7669881983478"/>
<rect fill="blue" height="10" width="10" x="295.3130927237087" y="-322.2389731406757"/>
<rect fill="blue" height="10" width="10" x="441.61535875347545" y="-285.44805895250016"/>
<rect fill="blue" height="10" width="10" x="279.3767795394487" y="-175.6410639427659"/>
<rect fill="blue" height="10" width="10" x="496.0923630694475" y="-63.441683768851384"/>
</g>
<g>
<rect fill="red" height="10" width="10" x="54.79753963774188" y="-302.1050558231541"/>
<rect fill="red" height="10" width="10" x="113.30919299313203" y="-253.42201628081997"/>
<rect fill="red" height="10" width="10" x="65.65884688585001" y="-290.6649151154577"/>
<rect fill="red" height="10" width="10" x="40.9427364534447" y="-277.76790405326517"/>
<rect fill="red" height="10" width="10" x="53.2334117867337" y="-298.3656427940423"/>
<rect fill="red" height="10" width="10" x="103.97076558688522" y="-272.12249060511306"/>
<rect fill="red" height="10" width="10" x="131.36877931004452" y="-207.23799322049987"/>
<rect fill="red" height="10" width="10" x="97.05631111464156" y="-302.96095179329586"/>
<rect fill="red" height="10" width="10" x="194.99518287300683" y="-256.455503100461"/>
<rect fill="red" height="10" width="10" x="53.40295767925937" y="-282.90797426746246"/>
<rect fill="red" height="10" width="10" x="15.754839572308054" y="-344.5992728063926"/>
<rect fill="red" height="10" width="10" x="72.35503564144362" y="-319.1731010088083"/>
<rect fill="red" height="10" width="10" x="71.83405430854705" y="-322.2943056596226"/>
<rect fill="red" height="10" width="10" x="116.44709216673118" y="-310.32054547589297"/>
<rect fill="red" height="10" width="10" x="9.764500098481616" y="-292.6333754851748"/>
<rect fill="red" height="10" width="10" x="116.03854370933789" y="-278.92546168515236"/>
<rect fill="red" height="10" width="10" x="53.36207172320352" y="-298.75080484046646"/>
<rect fill="red" height="10" width="10" x="25.741021253488828" y="-229.67907893509192"/>
<rect fill="red" height="10" width="10" x="27.72686685878928" y="-305.0446055975084"/>
<rect fill="red" height="10" width="10" x="207.8681028822802" y="-326.20413763296096"/>
<rect fill="red" height="10" width="10" x="89.05638924857703" y="-276.3763762690429"/>
<rect fill="red" height="10" width="10" x="75.76787977750193" y="-336.8288451769391"/>
<rect fill="red" height="10" width="10" x="66.14974863949092" y="-261.6626455056066"/>
<rect fill="red" height="10" width="10" x="36.84100356641976" y="-328.86629642723574"/>
<rect fill="red" height="10" width="10" x="18.723307898867397" y="-322.26887366570884"/>
<rect fill="red" height="10" width="10" x="71.60744008553048" y="-300.6270142058157"/>
<rect fill="red" height="10" width="10" x="95.35706952430324" y="-322.7745428244059"/>
<rect fill="red" height="10" width="10" x="94.12102695043137" y="-281.6666821946556"/>
<rect fill="red" height="10" width="10" x="91.00439323309347" y="-283.59708647635426"/>
<rect fill="red" height="10" width="10" x="114.35916449105112" y="-310.34009272662706"/>
<rect fill="red" height="10" width="10" x="159.39290025929594" y="-311.4126266587627"/>
<rect fill="red" height="10" width="10" x="28.835933184861133" y="-271.490825755197"/>
<rect fill="red" height="10" width="10" x="146.11936124620524" y="-334.431798273328"/>
<rect fill="red" height="10" width="10" x="73.28818987537922" y="-264.82497943624156"/>
<rect fill="red" height="10" width="10" x="59.47950840616012" y="-321.59862835947746"/>
<rect fill="red" height="10" width="10" x="31.484079324647567" y="-298.00129893154303"/>
<rect fill="red" height="10" width="10" x="111.9028127285778" y="-212.5745686179509"/>
<rect fill="red" height="10" width="10" x="52.37283722441242" y="-330.3971855045026"/>
<rect fill="red" height="10" width="10" x="52.854918949620796" y="-293.348126622779"/>
<rect fill="red" height="10" width="10" x="74.12546816303146" y="-268.95347888545587"/>
<rect fill="red" height="10" width="10" x="82.0461431164845" y="-294.75906962303173"/>
<rect fill="red" height="10" width="10" x="192.72306583209678" y="-302.9476428446392"/>
<rect fill="red" height="10" width="10" x="27.695992694958747" y="-328.7119549864418"/>
<rect fill="red" height="10" width="10" x="40.09139221614555" y="-330.7155099648108"/>
<rect fill="red" height="10" width="10" x="117.21567377610779" y="-321.44364069050073"/>
<rect fill="red" height="10" width="10" x="1.0651848632614342" y="-305.0359780853015"/>
<rect fill="red" height="10" width="10" x="134.17151745623374" y="-277.91573059874594"/>
<rect fill="red" height="10" width="10" x="47.74840382428768" y="-330.9770006269074"/>
<rect fill="red" height="10" width="10" x="82.73939025426213" y="-342.1757662280826"/>
<rect fill="red" height="10" width="10" x="50.49571403970517" y="-306.0100145994539"/>
<rect fill="red" height="10" width="10" x="46.50410293316082" y="-193.78636617985666"/>
<rect fill="red" height="10" width="10" x="41.34879162137289" y="-312.0147065910737"/>
<rect fill="red" height="10" width="10" x="58.52375753371077" y="-324.6531638858816"/>
<rect fill="red" height="10" width="10" x="13.367635120970814" y="-320.1793751853957"/>
<rect fill="red" height="10" width="10" x="65.70787626336009" y="-279.090695481577"/>
<rect fill="red" height="10" width="10" x="44.82003254174571" y="-270.6406835742279"/>
<rect fill="red" height="10" width="10" x="-2.835842277769432" y="-342.61429924264115"/>
<rect fill="red" height="10" width="10" x="26.06103096216044" y="-315.03186130913673"/>
<rect fill="red" height="10" width="10" x="33.83229209092286" y="-277.60931707652037"/>
<rect fill="red" height="10" width="10" x="47.06271145704388" y="-274.1203184453404"/>
<rect fill="red" height="10" width="10" x="69.39102472903565" y="-269.37033855138714"/>
<rect fill="red" height="10" width="10" x="55.07231351122281" y="-274.2959581340668"/>
<rect fill="red" height="10" width="10" x="93.2183126041341" y="-282.4945369460838"/>
<rect fill="red" height="10" width="10" x="69.08016720462469" y="-297.3902844986459"/>
<rect fill="red" height="10" width="10" x="15.374309720054569" y="-303.7042512127578"/>
<rect fill="red" height="10" width="10" x="21.745783257765076" y="-280.9910566549869"/>
<rect fill="red" height="10" width="10" x="14.538887907975841" y="-297.1241798017132"/>
<rect fill="red" height="10" width="10" x="21.77507592243984" y="-300.9044124206415"/>
<rect fill="red" height="10" width="10" x="10.891242258796101" y="-314.96884138431284"/>
<rect fill="red" height="10" width="10" x="78.20305573740822" y="-297.35333197397296"/>
<rect fill="red" height="10" width="10" x="7.980990650739733" y="-321.49615971809084"/>
<rect fill="red" height="10" width="10" x="88.52026270366517" y="-326.07547329729596"/>
<rect fill="red" height="10" width="10" x="-2.401716793046046" y="-261.4976090031851"/>
<rect fill="red" height="10" width="10" x="7.48822653937731" y="-343.39364434680977"/>
<rect fill="red" height="10" width="10" x="62.40359389580476" y="-297.7954423015926"/>
<rect fill="red" height="10" width="10" x="33.12333003925829" y="-257.05326514128285"/>
<rect fill="red" height="10" width="10" x="100.76193791018702" y="-329.8882259139752"/>
<rect fill="red" height="10" width="10" x="46.541694559666816" y="-263.53845122945086"/>
<rect fill="red" height="10" width="10" x="11.106162501722117" y="-260.3272048038285"/>
<rect fill="red" height="10" width="10" x="61.178211322772086" y="-270.4558061331977"/>
<rect fill="red" height="10" width="10" x="73.50934953565664" y="-321.5040849193756"/>
<rect fill="red" height="10" width="10" x="0.9368347953968188" y="-303.72552949288416"/>
<rect fill="red" height="10" width="10" x="97.39783504677605" y="-279.58562757065755"/>
<rect fill="red" height="10" width="10" x="71.98579298701218" y="-283.28862401016374"/>
<rect fill="red" height="10" width="10" x="101.8692360096309" y="-284.99372870557687"/>
<rect fill="red" height="10" width="10" x="94.66828050492897" y="-295.6502259916622"/>
<rect fill="red" height="10" width="10" x="122.34826891286389" y="-277.19248031266005"/>
<rect fill="red" height="10" width="10" x="11.78502133036325" y="-264.6179339252826"/>
<rect fill="red" height="10" width="10" x="28.427724677419036" y="-340.66724170359225"/>
<rect fill="red" height="10" width="10" x="26.344577153474624" y="-305.1888444012425"/>
<rect fill="red" height="10" width="10" x="61.64600861132509" y="-316.0571321939971"/>
<rect fill="red" height="10" width="10" x="67.07311859138375" y="-326.90409071369"/>
<rect fill="red" height="10" width="10" x="31.26848605767865" y="-284.9352556875914"/>
<rect fill="red" height="10" width="10" x="17.719439741518958" y="-293.0873762065761"/>
<rect fill="red" height="10" width="10" x="108.97749214453798" y="-311.62963244047774"/>
<rect fill="red" height="10" width="10" x="56.551091223744585" y="-305.6898571195272"/>
<rect fill="red" height="10" width="10" x="0.028070281558613353" y="-289.62925527981116"/>
<rect fill="red" height="10" width="10" x="121.68442858306491" y="-320.02055342827157"/>
<rect fill="red" height="10" width="10" x="1.782115413690529" y="-283.4483303754931"/>
<rect fill="red" height="10" width="10" x="81.56218342304544" y="-280.0137383952595"/>
<rect fill="red" height="10" width="10" x="178.9733849707044" y="-308.16024506012843"/>
<rect fill="red" height="10" width="10" x="78.96828977238454" y="-265.36821900141285"/>
<rect fill="red" height="10" width="10" x="63.373642367028125" y="-305.0112917100616"/>
<rect fill="red" height="10" width="10" x="89.11439181556115" y="-334.23316207275946"/>
<rect fill="red" height="10" width="10" x="82.22436975726761" y="-312.38743030032185"/>
<rect fill="red" height="10" width="10" x="74.28051975451446" y="-323.43373791999375"/>
<rect fill="red" height="10" width="10" x="37.405154134352706" y="-308.113375593004"/>
<rect fill="red" height="10" width="10" x="190.84911627044238" y="-261.33806322780964"/>
<rect fill="red" height="10" width="10" x="21.16449199383201" y="-294.065485179039"/>
<rect fill="red" height="10" width="10" x="88.47244055349039" y="-281.00219367853845"/>
<rect fill="red" height="10" width="10" x="109.31748253174769" y="-317.69908176576655"/>
<rect fill="red" height="10" width="10" x="116.95983671747547" y="-278.34554242020965"/>
<rect fill="red" height="10" width="10" x="111.93224994212478" y="-263.9384217000847"/>
<rect fill="red" height="10" width="10" x="54.1091242453104" y="-295.4744858289407"/>
<rect fill="red" height="10" width="10" x="86.83717647527706" y="-322.3149353761512"/>
<rect fill="red" height="10" width="10" x="85.98261433305235" y="-303.35959206406864"/>
<rect fill="red" height="10" width="10" x="90.36776292471185" y="-290.6706677085431"/>
<rect fill="red" height="10" width="10" x="118.13476413303745" y="-267.78554976124934"/>
<rect fill="red" height="10" width="10" x="80.8171664875833" y="-276.0106064810114"/>
<rect fill="red" height="10" width="10" x="108.21147901343254" y="-281.0785574836837"/>
<rect fill="red" height="10" width="10" x="72.16405689250604" y="-318.92978901227315"/>
<rect fill="red" height="10" width="10" x="33.98464665204581" y="-312.5037925838251"/>
<rect fill="red" height="10" width="10" x="-1.1240043431288065" y="-268.43183467113124"/>
<rect fill="red" height="10" width="10" x="160.53766490920742" y="-200.42526014130308"/>
<rect fill="red" height="10" width="10" x="106.72609939532363" y="-287.14327978685753"/>
<rect fill="red" height="10" width="10" x="155.60716768216486" y="-327.63290913527953"/>
<rect fill="red" height="10" width="10" x="10.071260966227978" y="-289.26017333744625"/>
<rect fill="red" height="10" width="10" x="58.04065298296335" y="-335.4315510702567"/>
</g>
<g>
<circle cx="156.33443848367727" cy="-75.26725111588539" fill="green" r="5"/>
</g>
<g>
<circle cx="383.0584379485553" cy="-246.8590110099498" fill="blue" r="5"/>
</g>
<g>
<circle cx="73.95247950134645" cy="-290.3250582369536" fill="red" r="5"/>
</g>
<g>
<g>
<line stroke="black" stroke-width="1" x1="51" x2="51" y1="0" y2="10"/>
<line stroke="black" stroke-width="1" x1="153" x2="153" y1="0" y2="10"/>
<line stroke="black" stroke-width="1" x1="255" x2="255" y1="0" y2="10"/>
<line stroke="black" stroke-width="1" x1="357" x2="357" y1="0" y2="10"/>
<line stroke="black" stroke-width="1" x1="459" x2="459" y1="0" y2="10"/>
</g>
<line stroke="black" stroke-width="1" x1="0" x2="510" y1="0" y2="0"/>
<g>
<text font-size="12" text-anchor="middle" x="51" y="20">
-4
</text>
<text font-size="12" text-anchor="middle" x="153" y="20">
-2
</text>
<text font-size="12" text-anchor="middle" x="255" y="20">
0
</text>
<text font-size="12" text-anchor="middle" x="357" y="20">
2
</text>
<text font-size="12" text-anchor="middle" x="459" y="20">
4
</text>
</g>
<text font-size="12" text-anchor="middle" x="255" y="30">
x-axis
</text>
</g>
<g>
<g>
<line stroke="black" stroke-width="1" x1="0" x2="-10" y1="-34" y2="-34"/>
<line stroke="black" stroke-width="1" x1="0" x2="-10" y1="-102" y2="-102"/>
<line stroke="black" stroke-width="1" x1="0" x2="-10" y1="-170" y2="-170"/>
<line stroke="black" stroke-width="1" x1="0" x2="-10" y1="-238" y2="-238"/>
<line stroke="black" stroke-width="1" x1="0" x2="-10" y1="-306" y2="-306"/>
</g>
<line stroke="black" stroke-width="1" x1="0" x2="0" y1="0" y2="-340"/>
<g>
<text dominant-baseline="middle" font-size="12" text-anchor="end" x="-15" y="-34">
-4
</text>
<text dominant-baseline="middle" font-size="12" text-anchor="end" x="-15" y="-102">
-2
</text>
<text dominant-baseline="middle" font-size="12" text-anchor="end" x="-15" y="-170">
0
</text>
<text dominant-baseline="middle" font-size="12" text-anchor="end" x="-15" y="-238">
2
</text>
<text dominant-baseline="middle" font-size="12" text-anchor="end" x="-15" y="-306">
4
</text>
</g>
<text font-size="12" text-anchor="middle" transform="rotate(-90 -30 -170)" x="-30" y="-182">
y-axis
</text>
</g>
</g>
</svg>